<svg width="16" height="16" viewBox="0 0 16 16" fill="none" xmlns="http://www.w3.org/2000/svg">
<g clip-path="url(#clip0)">
<path d="M12 9.032V5.50867C12 4.97823 11.7893 4.46953 11.4142 4.09445C11.0391 3.71938 10.5304 3.50867 10 3.50867H6C5.46957 3.50867 4.96086 3.71938 4.58579 4.09445C4.21071 4.46953 4 4.97823 4 5.50867V9.032" stroke="#6B7A9C" stroke-width="1.2" stroke-linecap="round" stroke-linejoin="round"/>
<path d="M15 10.232L8.37133 7.58005C8.13296 7.48471 7.86704 7.48471 7.62867 7.58005L1 10.232" stroke="#6B7A9C" stroke-width="1.2" stroke-linecap="round" stroke-linejoin="round"/>
<path d="M2.23877 9.73602L3.29877 12.9094" stroke="#6B7A9C" stroke-width="1.2" stroke-linecap="round" stroke-linejoin="round"/>
<path d="M8 12.5087V7.50867" stroke="#6B7A9C" stroke-width="1.2" stroke-linecap="round" stroke-linejoin="round"/>
<path d="M13.7613 9.73602L12.6526 13.054" stroke="#6B7A9C" stroke-width="1.2" stroke-linecap="round" stroke-linejoin="round"/>
<path d="M13.0981 11.7213L8.0001 9.68201L2.9021 11.7213" stroke="#6B7A9C" stroke-width="1.2" stroke-linecap="round" stroke-linejoin="round"/>
<path d="M0.5 15.5087C1.04296 15.5759 1.59407 15.521 2.11309 15.3479C2.63212 15.1749 3.10595 14.8882 3.5 14.5087C3.78422 14.8235 4.13133 15.0751 4.5189 15.2474C4.90647 15.4196 5.32588 15.5086 5.75 15.5086C6.17412 15.5086 6.59353 15.4196 6.9811 15.2474C7.36867 15.0751 7.71578 14.8235 8 14.5087C8.28422 14.8235 8.63133 15.0751 9.0189 15.2474C9.40647 15.4196 9.82588 15.5086 10.25 15.5086C10.6741 15.5086 11.0935 15.4196 11.4811 15.2474C11.8687 15.0751 12.2158 14.8235 12.5 14.5087C12.894 14.8882 13.3679 15.1749 13.8869 15.3479C14.4059 15.521 14.957 15.5759 15.5 15.5087" stroke="#6B7A9C" stroke-width="1.2" stroke-linecap="round" stroke-linejoin="round"/>
<path d="M6 5.50867H10" stroke="#6B7A9C" stroke-width="1.2" stroke-linecap="round" stroke-linejoin="round"/>
<path d="M9 1.00867C9 0.876059 8.94732 0.748882 8.85355 0.655114C8.75978 0.561345 8.63261 0.508667 8.5 0.508667H7.5C7.36739 0.508667 7.24022 0.561345 7.14645 0.655114C7.05268 0.748882 7 0.876059 7 1.00867V3.50867H9V1.00867Z" stroke="#6B7A9C" stroke-width="1.2" stroke-linecap="round" stroke-linejoin="round"/>
</g>
<defs>
<clipPath id="clip0">
<rect width="16" height="16" fill="white"/>
</clipPath>
</defs>
</svg>
