<svg width="17" height="16" viewBox="0 0 17 16" fill="none" xmlns="http://www.w3.org/2000/svg">
<path d="M5 11.5C6.10457 11.5 7 10.6046 7 9.5C7 8.39543 6.10457 7.5 5 7.5C3.89543 7.5 3 8.39543 3 9.5C3 10.6046 3.89543 11.5 5 11.5Z" stroke="#6B7A9C" stroke-width="1.2" stroke-linecap="round" stroke-linejoin="round"/>
<path d="M7.5 15.5V15C7.5 14.337 7.23661 13.7011 6.76777 13.2322C6.29893 12.7634 5.66304 12.5 5 12.5C4.33696 12.5 3.70107 12.7634 3.23223 13.2322C2.76339 13.7011 2.5 14.337 2.5 15V15.5" stroke="#6B7A9C" stroke-width="1.2" stroke-linecap="round" stroke-linejoin="round"/>
<path d="M11 11.5C12.1046 11.5 13 10.6046 13 9.5C13 8.39543 12.1046 7.5 11 7.5C9.89543 7.5 9 8.39543 9 9.5C9 10.6046 9.89543 11.5 11 11.5Z" stroke="#6B7A9C" stroke-width="1.2" stroke-linecap="round" stroke-linejoin="round"/>
<path d="M13.5001 15.5V15C13.4999 14.5057 13.3532 14.0226 13.0786 13.6117C12.804 13.2008 12.4137 12.8805 11.9571 12.6913C11.5005 12.5021 10.9981 12.4525 10.5133 12.5487C10.0285 12.6449 9.5831 12.8827 9.2334 13.232" stroke="#6B7A9C" stroke-width="1.2" stroke-linecap="round" stroke-linejoin="round"/>
<path d="M15.5 15.5V6L8 0.5L0.5 6V15.5" stroke="#6B7A9C" stroke-width="1.2" stroke-linecap="round" stroke-linejoin="round"/>
</svg>
