<svg width="16" height="16" viewBox="0 0 16 16" fill="none" xmlns="http://www.w3.org/2000/svg">
<g clip-path="url(#clip0)">
<path d="M2 12.2753V11.8043V11.3333H2.91961C3.52736 11.3333 3.83923 11.3356 3.83923 11.3401C3.83923 11.344 3.86322 11.347 3.8952 11.347C3.92719 11.347 3.95118 11.3499 3.95118 11.3538C3.95118 11.3575 3.96917 11.3606 3.99116 11.3606C4.01315 11.3606 4.03114 11.3637 4.03114 11.3674C4.03114 11.3712 4.04554 11.3743 4.06313 11.3743C4.08072 11.3743 4.09512 11.3773 4.09512 11.3811C4.09512 11.3848 4.10591 11.3879 4.11911 11.3879C4.1323 11.3879 4.1431 11.391 4.1431 11.3947C4.1431 11.3985 4.15389 11.4016 4.16709 11.4016C4.18028 11.4016 4.19108 11.4046 4.19108 11.4084C4.19108 11.4122 4.20187 11.4152 4.21507 11.4152C4.22826 11.4152 4.23906 11.4183 4.23906 11.4221C4.23906 11.4258 4.24625 11.4289 4.25505 11.4289C4.26385 11.4289 4.27104 11.4319 4.27104 11.4357C4.27104 11.4395 4.28184 11.4425 4.29503 11.4425C4.30823 11.4425 4.31902 11.4456 4.31902 11.4494C4.31902 11.4531 4.32622 11.4562 4.33502 11.4562C4.34381 11.4562 4.35101 11.4593 4.35101 11.463C4.35101 11.4668 4.35821 11.4698 4.367 11.4698C4.3758 11.4698 4.383 11.4729 4.383 11.4767C4.383 11.4804 4.39019 11.4835 4.39899 11.4835C4.40779 11.4835 4.41498 11.4866 4.41498 11.4903C4.41498 11.4941 4.42139 11.4971 4.42921 11.4971C4.43704 11.4971 4.44862 11.5033 4.45497 11.5108C4.46131 11.5183 4.47289 11.5244 4.48072 11.5244C4.48854 11.5244 4.49495 11.5275 4.49495 11.5313C4.49495 11.535 4.50135 11.5381 4.50918 11.5381C4.517 11.5381 4.52859 11.5442 4.53493 11.5517C4.54127 11.5593 4.55142 11.5654 4.55748 11.5654C4.56354 11.5654 4.57859 11.5746 4.59091 11.5859C4.60323 11.5971 4.61755 11.6064 4.62274 11.6064C4.62791 11.6064 4.64597 11.6186 4.66288 11.6337C4.67978 11.6487 4.69755 11.661 4.70237 11.661C4.71371 11.661 4.83081 11.7608 4.83081 11.7705C4.83081 11.7746 4.8488 11.7928 4.87079 11.8111C4.89278 11.8294 4.91077 11.8485 4.91077 11.8535C4.91077 11.8586 4.91797 11.8671 4.92677 11.8726C4.93556 11.878 4.94276 11.8872 4.94276 11.893C4.94276 11.8989 4.94996 11.9081 4.95875 11.9135C4.96755 11.9189 4.97475 11.9281 4.97475 11.934C4.97475 11.9398 4.98194 11.9491 4.99074 11.9545C4.99954 11.9599 5.00673 11.9698 5.00673 11.9765C5.00673 11.9831 5.01033 11.9886 5.01473 11.9886C5.01913 11.9886 5.02273 11.9947 5.02273 12.0023C5.02273 12.0098 5.02633 12.0159 5.03072 12.0159C5.03512 12.0159 5.03872 12.0221 5.03872 12.0296C5.03872 12.0371 5.04232 12.0432 5.04672 12.0432C5.05112 12.0432 5.05471 12.0494 5.05471 12.0569C5.05471 12.0644 5.05831 12.0705 5.06271 12.0705C5.06711 12.0705 5.07071 12.0767 5.07071 12.0842C5.07071 12.0917 5.07431 12.0978 5.0787 12.0978C5.0831 12.0978 5.0867 12.104 5.0867 12.1115C5.0867 12.119 5.0903 12.1251 5.0947 12.1251C5.0991 12.1251 5.10269 12.1343 5.10269 12.1456C5.10269 12.1569 5.10629 12.1661 5.11069 12.1661C5.11509 12.1661 5.11869 12.1722 5.11869 12.1797C5.11869 12.1872 5.12229 12.1934 5.12668 12.1934C5.13108 12.1934 5.13468 12.2057 5.13468 12.2207C5.13468 12.2357 5.13828 12.248 5.14268 12.248C5.14707 12.248 5.15067 12.2572 5.15067 12.2685C5.15067 12.2797 5.15427 12.2889 5.15867 12.2889C5.16307 12.2889 5.16667 12.3043 5.16667 12.3231C5.16667 12.3418 5.17026 12.3572 5.17466 12.3572C5.17911 12.3572 5.18266 12.3754 5.18266 12.3982C5.18266 12.4209 5.18621 12.4391 5.19066 12.4391C5.19574 12.4391 5.19865 12.4937 5.19865 12.5893C5.19865 12.6848 5.19574 12.7395 5.19066 12.7395C5.18609 12.7395 5.18266 12.7599 5.18266 12.7872C5.18266 12.8145 5.17923 12.835 5.17466 12.835C5.17026 12.835 5.16667 12.8473 5.16667 12.8623C5.16667 12.8773 5.16307 12.8896 5.15867 12.8896C5.15427 12.8896 5.15067 12.9019 5.15067 12.9169C5.15067 12.9319 5.14707 12.9442 5.14268 12.9442C5.13828 12.9442 5.13468 12.9534 5.13468 12.9647C5.13468 12.976 5.13108 12.9852 5.12668 12.9852C5.12229 12.9852 5.11869 12.9944 5.11869 13.0057C5.11869 13.0169 5.11509 13.0261 5.11069 13.0261C5.10629 13.0261 5.10269 13.0323 5.10269 13.0398C5.10269 13.0473 5.0991 13.0534 5.0947 13.0534C5.0903 13.0534 5.0867 13.0627 5.0867 13.0739C5.0867 13.0852 5.0831 13.0944 5.0787 13.0944C5.07431 13.0944 5.07071 13.1005 5.07071 13.1081C5.07071 13.1156 5.06711 13.1217 5.06271 13.1217C5.05831 13.1217 5.05471 13.1279 5.05471 13.1354C5.05471 13.1429 5.05112 13.149 5.04672 13.149C5.04232 13.149 5.03872 13.1552 5.03872 13.1627C5.03872 13.1702 5.03512 13.1763 5.03072 13.1763C5.02633 13.1763 5.02273 13.1818 5.02273 13.1885C5.02273 13.1951 5.01553 13.205 5.00673 13.2104C4.99794 13.2159 4.99074 13.2257 4.99074 13.2324C4.99074 13.2391 4.98714 13.2446 4.98274 13.2446C4.97835 13.2446 4.97475 13.25 4.97475 13.2567C4.97475 13.2634 4.96755 13.2733 4.95875 13.2787C4.94996 13.2841 4.94276 13.2928 4.94276 13.298C4.94276 13.3031 4.93197 13.316 4.91877 13.3265C4.90558 13.337 4.89478 13.349 4.89478 13.3532C4.89478 13.363 4.64972 13.5722 4.63816 13.5722C4.63329 13.5722 4.61923 13.5814 4.6069 13.5927C4.59458 13.604 4.57953 13.6132 4.57348 13.6132C4.56741 13.6132 4.55727 13.6193 4.55093 13.6268C4.54458 13.6343 4.53379 13.6405 4.52694 13.6405C4.52008 13.6405 4.50929 13.6466 4.50295 13.6541C4.4966 13.6616 4.48581 13.6678 4.47896 13.6678C4.4721 13.6678 4.46131 13.6739 4.45497 13.6814C4.44862 13.6889 4.43704 13.6951 4.42921 13.6951C4.42139 13.6951 4.41498 13.6982 4.41498 13.7019C4.41498 13.7057 4.40779 13.7087 4.39899 13.7087C4.39019 13.7087 4.383 13.7118 4.383 13.7156C4.383 13.7193 4.3758 13.7224 4.367 13.7224C4.35821 13.7224 4.35101 13.7255 4.35101 13.7292C4.35101 13.733 4.34381 13.736 4.33502 13.736C4.32622 13.736 4.31902 13.7391 4.31902 13.7429C4.31902 13.7466 4.30823 13.7497 4.29503 13.7497C4.28184 13.7497 4.27104 13.7528 4.27104 13.7565C4.27104 13.7603 4.26385 13.7633 4.25505 13.7633C4.24625 13.7633 4.23906 13.7664 4.23906 13.7702C4.23906 13.7739 4.22826 13.777 4.21507 13.777C4.20187 13.777 4.19108 13.7801 4.19108 13.7838C4.19108 13.7876 4.18388 13.7907 4.17508 13.7907C4.16629 13.7907 4.15909 13.7937 4.15909 13.7975C4.15909 13.8012 4.1447 13.8043 4.1271 13.8043C4.10951 13.8043 4.09512 13.8074 4.09512 13.8111C4.09512 13.8149 4.08432 13.818 4.07113 13.818C4.05793 13.818 4.04714 13.821 4.04714 13.8248C4.04714 13.8285 4.02915 13.8316 4.00715 13.8316C3.98516 13.8316 3.96717 13.8347 3.96717 13.8384C3.96717 13.8422 3.94918 13.8453 3.92719 13.8453C3.9052 13.8453 3.88721 13.8483 3.88721 13.8521C3.88721 13.8562 3.85522 13.8589 3.80724 13.8589C3.75926 13.8589 3.72727 13.8616 3.72727 13.8657C3.72727 13.8702 3.61798 13.8726 3.4154 13.8726H3.10354V14.5961V15.3197H2.55177H2V14.1183V12.9169H2.82365C3.36742 12.9169 3.64731 12.9146 3.64731 12.9101C3.64731 12.9064 3.6581 12.9033 3.6713 12.9033C3.68449 12.9033 3.69529 12.9002 3.69529 12.8965C3.69529 12.8927 3.70248 12.8896 3.71128 12.8896C3.72008 12.8896 3.72727 12.8866 3.72727 12.8828C3.72727 12.879 3.73302 12.876 3.74006 12.876C3.74709 12.876 3.76293 12.8668 3.77525 12.8555C3.78758 12.8442 3.80187 12.835 3.80702 12.835C3.8191 12.835 3.83923 12.8178 3.83923 12.8075C3.83923 12.8031 3.85002 12.7909 3.86322 12.7804C3.87641 12.7699 3.88721 12.7564 3.88721 12.7504C3.88721 12.7444 3.8908 12.7395 3.8952 12.7395C3.8996 12.7395 3.9032 12.7302 3.9032 12.719C3.9032 12.7077 3.9068 12.6985 3.9112 12.6985C3.91559 12.6985 3.91919 12.6893 3.91919 12.678C3.91919 12.6668 3.92279 12.6575 3.92719 12.6575C3.93193 12.6575 3.93519 12.6325 3.93519 12.5961C3.93519 12.5597 3.93193 12.5347 3.92719 12.5347C3.92279 12.5347 3.91919 12.5224 3.91919 12.5074C3.91919 12.4924 3.91559 12.4801 3.9112 12.4801C3.9068 12.4801 3.9032 12.4739 3.9032 12.4664C3.9032 12.4589 3.8996 12.4528 3.8952 12.4528C3.8908 12.4528 3.88721 12.4473 3.88721 12.4406C3.88721 12.4339 3.88001 12.4241 3.87121 12.4186C3.86242 12.4132 3.85522 12.4047 3.85522 12.3998C3.85522 12.388 3.8191 12.3572 3.80537 12.3572C3.79955 12.3572 3.78959 12.3511 3.78325 12.3436C3.77691 12.336 3.76532 12.3299 3.75749 12.3299C3.74967 12.3299 3.74327 12.3268 3.74327 12.3231C3.74327 12.3193 3.73607 12.3162 3.72727 12.3162C3.71848 12.3162 3.71128 12.3132 3.71128 12.3094C3.71128 12.3057 3.70408 12.3026 3.69529 12.3026C3.68649 12.3026 3.67929 12.2995 3.67929 12.2958C3.67929 12.292 3.6613 12.2889 3.63931 12.2889C3.61732 12.2889 3.59933 12.2859 3.59933 12.2821C3.59933 12.2776 3.32744 12.2753 2.79966 12.2753H2Z" fill="#6B7A9C"/>
<path d="M6.29419 11.3879C6.28979 11.3879 6.2862 11.3787 6.2862 11.3674V11.347H6.87795C7.46436 11.347 7.4697 11.3471 7.4697 11.3606C7.4697 11.3681 7.4733 11.3743 7.47769 11.3743C7.48209 11.3743 7.48569 11.3835 7.48569 11.3947C7.48569 11.406 7.48929 11.4152 7.49369 11.4152C7.49809 11.4152 7.50168 11.4244 7.50168 11.4357C7.50168 11.447 7.50528 11.4562 7.50968 11.4562C7.51408 11.4562 7.51768 11.4654 7.51768 11.4767C7.51768 11.4879 7.52128 11.4971 7.52567 11.4971C7.53007 11.4971 7.53367 11.5064 7.53367 11.5176C7.53367 11.5289 7.53727 11.5381 7.54167 11.5381C7.54606 11.5381 7.54966 11.5473 7.54966 11.5586C7.54966 11.5698 7.55326 11.579 7.55766 11.579C7.56206 11.579 7.56566 11.5883 7.56566 11.5995C7.56566 11.6108 7.56925 11.62 7.57365 11.62C7.57805 11.62 7.58165 11.6292 7.58165 11.6405C7.58165 11.6517 7.58525 11.661 7.58965 11.661C7.59404 11.661 7.59764 11.6671 7.59764 11.6746C7.59764 11.6821 7.60124 11.6883 7.60564 11.6883C7.61004 11.6883 7.61364 11.6975 7.61364 11.7087C7.61364 11.72 7.61723 11.7292 7.62163 11.7292C7.62603 11.7292 7.62963 11.7384 7.62963 11.7497C7.62963 11.761 7.63323 11.7702 7.63763 11.7702C7.64202 11.7702 7.64562 11.7794 7.64562 11.7907C7.64562 11.8019 7.64922 11.8111 7.65362 11.8111C7.65802 11.8111 7.66162 11.8203 7.66162 11.8316C7.66162 11.8429 7.66521 11.8521 7.66961 11.8521C7.67401 11.8521 7.67761 11.8613 7.67761 11.8726C7.67761 11.8838 7.68121 11.893 7.68561 11.893C7.69 11.893 7.6936 11.9023 7.6936 11.9135C7.6936 11.9248 7.6972 11.934 7.7016 11.934C7.706 11.934 7.7096 11.9432 7.7096 11.9545C7.7096 11.9657 7.71319 11.975 7.71759 11.975C7.72199 11.975 7.72559 11.9842 7.72559 11.9954C7.72559 12.0067 7.72919 12.0159 7.73359 12.0159C7.73798 12.0159 7.74158 12.0251 7.74158 12.0364C7.74158 12.0476 7.74518 12.0569 7.74958 12.0569C7.75398 12.0569 7.75758 12.063 7.75758 12.0705C7.75758 12.078 7.76117 12.0842 7.76557 12.0842C7.76997 12.0842 7.77357 12.0934 7.77357 12.1046C7.77357 12.1159 7.77717 12.1251 7.78157 12.1251C7.78596 12.1251 7.78956 12.1343 7.78956 12.1456C7.78956 12.1569 7.79316 12.1661 7.79756 12.1661C7.80196 12.1661 7.80556 12.1753 7.80556 12.1866C7.80556 12.1978 7.80915 12.207 7.81355 12.207C7.81795 12.207 7.82155 12.2162 7.82155 12.2275C7.82155 12.2388 7.82515 12.248 7.82955 12.248C7.83394 12.248 7.83754 12.2572 7.83754 12.2685C7.83754 12.2797 7.84114 12.2889 7.84554 12.2889C7.84994 12.2889 7.85354 12.2982 7.85354 12.3094C7.85354 12.3207 7.85713 12.3299 7.86153 12.3299C7.86593 12.3299 7.86953 12.3391 7.86953 12.3504C7.86953 12.3616 7.87313 12.3709 7.87752 12.3709C7.88192 12.3709 7.88552 12.3801 7.88552 12.3913C7.88552 12.4026 7.88912 12.4118 7.89352 12.4118C7.89792 12.4118 7.90152 12.421 7.90152 12.4323C7.90152 12.4436 7.90511 12.4528 7.90951 12.4528C7.91391 12.4528 7.91751 12.4589 7.91751 12.4664C7.91751 12.4739 7.92111 12.4801 7.9255 12.4801C7.9299 12.4801 7.9335 12.4893 7.9335 12.5005C7.9335 12.5118 7.9371 12.521 7.9415 12.521C7.9459 12.521 7.94949 12.5302 7.94949 12.5415C7.94949 12.5528 7.95309 12.562 7.95749 12.562C7.96189 12.562 7.96549 12.5712 7.96549 12.5825C7.96549 12.5937 7.96909 12.6029 7.97348 12.6029C7.97788 12.6029 7.98148 12.6122 7.98148 12.6234C7.98148 12.6347 7.98508 12.6439 7.98948 12.6439C7.99388 12.6439 7.99747 12.6531 7.99747 12.6644C7.99747 12.6756 8.00107 12.6848 8.00547 12.6848C8.00987 12.6848 8.01347 12.6941 8.01347 12.7053C8.01347 12.7166 8.01707 12.7258 8.02146 12.7258C8.02586 12.7258 8.02946 12.735 8.02946 12.7463C8.02946 12.7575 8.03306 12.7668 8.03746 12.7668C8.04186 12.7668 8.04545 12.776 8.04545 12.7872C8.04545 12.7985 8.04905 12.8077 8.05345 12.8077C8.05785 12.8077 8.06145 12.8169 8.06145 12.8282C8.06145 12.8395 8.06505 12.8487 8.06944 12.8487C8.07384 12.8487 8.07744 12.8579 8.07744 12.8691C8.07744 12.8804 8.08104 12.8896 8.08544 12.8896C8.08984 12.8896 8.09343 12.8958 8.09343 12.9033C8.09343 12.9108 8.09703 12.9169 8.10143 12.9169C8.10583 12.9169 8.10943 12.9261 8.10943 12.9374C8.10943 12.9487 8.11303 12.9579 8.11742 12.9579C8.12182 12.9579 8.12542 12.9671 8.12542 12.9784C8.12542 12.9896 8.12902 12.9988 8.13342 12.9988C8.13782 12.9988 8.14141 13.0081 8.14141 13.0193C8.14141 13.0306 8.14501 13.0398 8.14941 13.0398C8.15381 13.0398 8.15741 13.049 8.15741 13.0603C8.15741 13.0715 8.16101 13.0808 8.1654 13.0808C8.1698 13.0808 8.1734 13.09 8.1734 13.1012C8.1734 13.1125 8.177 13.1217 8.1814 13.1217C8.1858 13.1217 8.18939 13.1309 8.18939 13.1422C8.18939 13.1535 8.19299 13.1627 8.19739 13.1627C8.20179 13.1627 8.20539 13.1719 8.20539 13.1831C8.20539 13.1944 8.20899 13.2036 8.21338 13.2036C8.21778 13.2036 8.22138 13.2128 8.22138 13.2241C8.22138 13.2354 8.22498 13.2446 8.22938 13.2446C8.23378 13.2446 8.23737 13.2538 8.23737 13.2651C8.23737 13.2763 8.24097 13.2855 8.24537 13.2855C8.24977 13.2855 8.25337 13.2917 8.25337 13.2992C8.25337 13.3067 8.25697 13.3128 8.26136 13.3128C8.26576 13.3128 8.26936 13.3221 8.26936 13.3333C8.26936 13.3446 8.27296 13.3538 8.27736 13.3538C8.28175 13.3538 8.28535 13.363 8.28535 13.3743C8.28535 13.3855 8.28895 13.3947 8.29335 13.3947C8.29775 13.3947 8.30135 13.404 8.30135 13.4152C8.30135 13.4265 8.30494 13.4357 8.30934 13.4357C8.31374 13.4357 8.31734 13.4449 8.31734 13.4562C8.31734 13.4674 8.32094 13.4767 8.32534 13.4767C8.32973 13.4767 8.33333 13.4859 8.33333 13.4971C8.33333 13.5084 8.33693 13.5176 8.34133 13.5176C8.34573 13.5176 8.34933 13.5268 8.34933 13.5381C8.34933 13.5494 8.35292 13.5586 8.35732 13.5586C8.36172 13.5586 8.36532 13.5678 8.36532 13.579C8.36532 13.5903 8.36892 13.5995 8.37332 13.5995C8.37771 13.5995 8.38131 13.6087 8.38131 13.62C8.38131 13.6313 8.38491 13.6405 8.38931 13.6405C8.39371 13.6405 8.39731 13.6497 8.39731 13.661C8.39731 13.6722 8.4009 13.6814 8.4053 13.6814C8.4097 13.6814 8.4133 13.6876 8.4133 13.6951C8.4133 13.7026 8.4169 13.7087 8.4213 13.7087C8.42569 13.7087 8.42929 13.718 8.42929 13.7292C8.42929 13.7405 8.43289 13.7497 8.43729 13.7497C8.44169 13.7497 8.44529 13.7589 8.44529 13.7702C8.44529 13.7814 8.44888 13.7907 8.45328 13.7907C8.45768 13.7907 8.46128 13.7999 8.46128 13.8111C8.46128 13.8224 8.46488 13.8316 8.46928 13.8316C8.47367 13.8316 8.47727 13.8408 8.47727 13.8521C8.47727 13.8633 8.48087 13.8726 8.48527 13.8726C8.48967 13.8726 8.49327 13.8818 8.49327 13.893C8.49327 13.9043 8.49686 13.9135 8.50126 13.9135C8.50566 13.9135 8.50926 13.9227 8.50926 13.934C8.50926 13.9453 8.51286 13.9545 8.51726 13.9545C8.52165 13.9545 8.52525 13.9637 8.52525 13.975C8.52525 13.9862 8.52885 13.9954 8.53325 13.9954C8.53765 13.9954 8.54125 14.0046 8.54125 14.0159C8.54125 14.0272 8.54484 14.0364 8.54924 14.0364C8.55364 14.0364 8.55724 14.0456 8.55724 14.0569C8.55724 14.0681 8.56084 14.0773 8.56524 14.0773C8.56963 14.0773 8.57323 14.0835 8.57323 14.091C8.57323 14.0985 8.57683 14.1046 8.58123 14.1046C8.58563 14.1046 8.58923 14.1139 8.58923 14.1251C8.58923 14.1364 8.59282 14.1456 8.59722 14.1456C8.60162 14.1456 8.60522 14.1548 8.60522 14.1661C8.60522 14.1773 8.60882 14.1866 8.61321 14.1866C8.61761 14.1866 8.62121 14.1958 8.62121 14.207C8.62121 14.2183 8.62481 14.2275 8.62921 14.2275C8.63361 14.2275 8.63721 14.2367 8.63721 14.248C8.63721 14.2593 8.6408 14.2685 8.6452 14.2685C8.6496 14.2685 8.6532 14.2777 8.6532 14.2889C8.6532 14.3002 8.6568 14.3094 8.6612 14.3094C8.66559 14.3094 8.66919 14.3186 8.66919 14.3299C8.66919 14.3412 8.67279 14.3504 8.67719 14.3504C8.68159 14.3504 8.68518 14.3596 8.68518 14.3709C8.68518 14.3821 8.68878 14.3913 8.69318 14.3913C8.69758 14.3913 8.70118 14.4005 8.70118 14.4118C8.70118 14.4231 8.70478 14.4323 8.70917 14.4323C8.71357 14.4323 8.71717 14.4415 8.71717 14.4528C8.71717 14.464 8.72077 14.4732 8.72517 14.4732C8.72957 14.4732 8.73316 14.4794 8.73316 14.4869C8.73316 14.4944 8.73676 14.5005 8.74116 14.5005C8.74556 14.5005 8.74916 14.5098 8.74916 14.521C8.74916 14.5323 8.75276 14.5415 8.75715 14.5415C8.76155 14.5415 8.76515 14.5507 8.76515 14.562C8.76515 14.5732 8.76875 14.5825 8.77315 14.5825C8.77755 14.5825 8.78114 14.5917 8.78114 14.6029C8.78114 14.6142 8.78474 14.6234 8.78914 14.6234C8.79354 14.6234 8.79714 14.6326 8.79714 14.6439C8.79714 14.6552 8.80074 14.6644 8.80513 14.6644C8.80953 14.6644 8.81313 14.6736 8.81313 14.6848C8.81313 14.6961 8.81673 14.7053 8.82113 14.7053C8.82553 14.7053 8.82912 14.7145 8.82912 14.7258C8.82912 14.7371 8.83272 14.7463 8.83712 14.7463C8.84152 14.7463 8.84512 14.7555 8.84512 14.7668C8.84512 14.778 8.84872 14.7872 8.85311 14.7872C8.85751 14.7872 8.86111 14.7965 8.86111 14.8077C8.86111 14.819 8.86471 14.8282 8.86911 14.8282C8.87351 14.8282 8.8771 14.8374 8.8771 14.8487C8.8771 14.8599 8.8807 14.8691 8.8851 14.8691C8.8895 14.8691 8.8931 14.8784 8.8931 14.8896C8.8931 14.9009 8.8967 14.9101 8.90109 14.9101C8.90549 14.9101 8.90909 14.9162 8.90909 14.9238C8.90909 14.9313 8.91269 14.9374 8.91709 14.9374C8.92149 14.9374 8.92508 14.9466 8.92508 14.9579C8.92508 14.9691 8.92868 14.9784 8.93308 14.9784C8.93748 14.9784 8.94108 14.9876 8.94108 14.9988C8.94108 15.0101 8.94468 15.0193 8.94907 15.0193C8.95347 15.0193 8.95707 15.0285 8.95707 15.0398C8.95707 15.0511 8.96067 15.0603 8.96507 15.0603C8.96946 15.0603 8.97306 15.0695 8.97306 15.0808C8.97306 15.092 8.97666 15.1012 8.98106 15.1012C8.98546 15.1012 8.98906 15.1104 8.98906 15.1217C8.98906 15.133 8.99266 15.1422 8.99705 15.1422C9.00145 15.1422 9.00505 15.1514 9.00505 15.1627C9.00505 15.1739 9.00865 15.1831 9.01305 15.1831C9.01745 15.1831 9.02104 15.1924 9.02104 15.2036C9.02104 15.2149 9.02464 15.2241 9.02904 15.2241C9.03344 15.2241 9.03704 15.2333 9.03704 15.2446C9.03704 15.2558 9.04064 15.2651 9.04503 15.2651C9.04943 15.2651 9.05303 15.2743 9.05303 15.2855C9.05303 15.2968 9.05663 15.306 9.06103 15.306C9.06542 15.306 9.06902 15.3122 9.06902 15.3197C9.06902 15.3333 9.06369 15.3333 6.82197 15.3333C4.58025 15.3333 4.57492 15.3333 4.57492 15.3197C4.57492 15.3122 4.57851 15.306 4.58291 15.306C4.58731 15.306 4.59091 15.2968 4.59091 15.2855C4.59091 15.2743 4.59451 15.2651 4.59891 15.2651C4.6033 15.2651 4.6069 15.2558 4.6069 15.2446C4.6069 15.2333 4.6105 15.2241 4.6149 15.2241C4.6193 15.2241 4.6229 15.2149 4.6229 15.2036C4.6229 15.1924 4.62649 15.1831 4.63089 15.1831C4.63529 15.1831 4.63889 15.1739 4.63889 15.1627C4.63889 15.1514 4.64249 15.1422 4.64689 15.1422C4.65128 15.1422 4.65488 15.133 4.65488 15.1217C4.65488 15.1104 4.65848 15.1012 4.66288 15.1012C4.66728 15.1012 4.67088 15.092 4.67088 15.0808C4.67088 15.0695 4.67447 15.0603 4.67887 15.0603C4.68327 15.0603 4.68687 15.0511 4.68687 15.0398C4.68687 15.0285 4.69047 15.0193 4.69487 15.0193C4.69926 15.0193 4.70286 15.007 4.70286 14.992C4.70286 14.977 4.70646 14.9647 4.71086 14.9647C4.71526 14.9647 4.71886 14.9555 4.71886 14.9442C4.71886 14.933 4.72245 14.9238 4.72685 14.9238C4.73125 14.9238 4.73485 14.9145 4.73485 14.9033C4.73485 14.892 4.73845 14.8828 4.74284 14.8828C4.74724 14.8828 4.75084 14.8736 4.75084 14.8623C4.75084 14.8511 4.75444 14.8418 4.75884 14.8418C4.76324 14.8418 4.76683 14.8326 4.76683 14.8214C4.76683 14.8101 4.77043 14.8009 4.77483 14.8009C4.77923 14.8009 4.78283 14.7917 4.78283 14.7804C4.78283 14.7691 4.78643 14.7599 4.79082 14.7599C4.79522 14.7599 4.79882 14.7507 4.79882 14.7395C4.79882 14.7282 4.80242 14.719 4.80682 14.719C4.81122 14.719 4.81481 14.7098 4.81481 14.6985C4.81481 14.6872 4.81841 14.678 4.82281 14.678C4.82721 14.678 4.83081 14.6688 4.83081 14.6575C4.83081 14.6463 4.83441 14.6371 4.8388 14.6371C4.8432 14.6371 4.8468 14.6248 4.8468 14.6098C4.8468 14.5947 4.8504 14.5825 4.8548 14.5825C4.8592 14.5825 4.86279 14.5732 4.86279 14.562C4.86279 14.5507 4.86639 14.5415 4.87079 14.5415C4.87519 14.5415 4.87879 14.5323 4.87879 14.521C4.87879 14.5098 4.88239 14.5005 4.88678 14.5005C4.89118 14.5005 4.89478 14.4913 4.89478 14.4801C4.89478 14.4688 4.89838 14.4596 4.90278 14.4596C4.90718 14.4596 4.91077 14.4504 4.91077 14.4391C4.91077 14.4279 4.91437 14.4186 4.91877 14.4186C4.92317 14.4186 4.92677 14.4094 4.92677 14.3982C4.92677 14.3869 4.93037 14.3777 4.93476 14.3777C4.93916 14.3777 4.94276 14.3685 4.94276 14.3572C4.94276 14.3459 4.94636 14.3367 4.95076 14.3367C4.95516 14.3367 4.95875 14.3275 4.95875 14.3162C4.95875 14.305 4.96235 14.2958 4.96675 14.2958C4.97115 14.2958 4.97475 14.2866 4.97475 14.2753C4.97475 14.264 4.97835 14.2548 4.98274 14.2548C4.98714 14.2548 4.99074 14.2456 4.99074 14.2343C4.99074 14.2231 4.99434 14.2139 4.99874 14.2139C5.00314 14.2139 5.00673 14.2016 5.00673 14.1866C5.00673 14.1715 5.01033 14.1593 5.01473 14.1593C5.01913 14.1593 5.02273 14.15 5.02273 14.1388C5.02273 14.1275 5.02633 14.1183 5.03072 14.1183C5.03512 14.1183 5.03872 14.1091 5.03872 14.0978C5.03872 14.0866 5.04232 14.0773 5.04672 14.0773C5.05112 14.0773 5.05471 14.0681 5.05471 14.0569C5.05471 14.0456 5.05831 14.0364 5.06271 14.0364C5.06711 14.0364 5.07071 14.0272 5.07071 14.0159C5.07071 14.0046 5.07431 13.9954 5.0787 13.9954C5.0831 13.9954 5.0867 13.9862 5.0867 13.975C5.0867 13.9637 5.0903 13.9545 5.0947 13.9545C5.0991 13.9545 5.10269 13.9453 5.10269 13.934C5.10269 13.9227 5.10629 13.9135 5.11069 13.9135C5.11509 13.9135 5.11869 13.9043 5.11869 13.893C5.11869 13.8818 5.12229 13.8726 5.12668 13.8726C5.13108 13.8726 5.13468 13.8633 5.13468 13.8521C5.13468 13.8408 5.13828 13.8316 5.14268 13.8316C5.14707 13.8316 5.15067 13.8193 5.15067 13.8043C5.15067 13.7893 5.15427 13.777 5.15867 13.777C5.16307 13.777 5.16667 13.7678 5.16667 13.7565C5.16667 13.7453 5.17026 13.736 5.17466 13.736C5.17906 13.736 5.18266 13.7268 5.18266 13.7156C5.18266 13.7043 5.18626 13.6951 5.19066 13.6951C5.19505 13.6951 5.19865 13.6859 5.19865 13.6746C5.19865 13.6633 5.20225 13.6541 5.20665 13.6541C5.21105 13.6541 5.21465 13.6449 5.21465 13.6337C5.21465 13.6224 5.21824 13.6132 5.22264 13.6132C5.22704 13.6132 5.23064 13.604 5.23064 13.5927C5.23064 13.5814 5.23424 13.5722 5.23864 13.5722C5.24303 13.5722 5.24663 13.563 5.24663 13.5517C5.24663 13.5405 5.25023 13.5313 5.25463 13.5313C5.25903 13.5313 5.26263 13.5221 5.26263 13.5108C5.26263 13.4995 5.26622 13.4903 5.27062 13.4903C5.27502 13.4903 5.27862 13.4811 5.27862 13.4698C5.27862 13.4586 5.28222 13.4494 5.28662 13.4494C5.29101 13.4494 5.29461 13.4371 5.29461 13.422C5.29461 13.407 5.29821 13.3947 5.30261 13.3947C5.30701 13.3947 5.31061 13.3855 5.31061 13.3743C5.31061 13.363 5.3142 13.3538 5.3186 13.3538C5.323 13.3538 5.3266 13.3446 5.3266 13.3333C5.3266 13.3221 5.3302 13.3128 5.3346 13.3128C5.33899 13.3128 5.34259 13.3036 5.34259 13.2924C5.34259 13.2811 5.34619 13.2719 5.35059 13.2719C5.35499 13.2719 5.35859 13.2627 5.35859 13.2514C5.35859 13.2401 5.36218 13.2309 5.36658 13.2309C5.37098 13.2309 5.37458 13.2217 5.37458 13.2104C5.37458 13.1992 5.37818 13.19 5.38258 13.19C5.38697 13.19 5.39057 13.1808 5.39057 13.1695C5.39057 13.1582 5.39417 13.149 5.39857 13.149C5.40297 13.149 5.40657 13.1398 5.40657 13.1285C5.40657 13.1173 5.41016 13.1081 5.41456 13.1081C5.41896 13.1081 5.42256 13.0988 5.42256 13.0876C5.42256 13.0763 5.42616 13.0671 5.43056 13.0671C5.43495 13.0671 5.43855 13.0579 5.43855 13.0466C5.43855 13.0354 5.44215 13.0261 5.44655 13.0261C5.45095 13.0261 5.45455 13.0139 5.45455 12.9988C5.45455 12.9838 5.45814 12.9715 5.46254 12.9715C5.46694 12.9715 5.47054 12.9654 5.47054 12.9579C5.47054 12.9444 5.47587 12.9442 6.06229 12.9442C6.45146 12.9442 6.65404 12.9466 6.65404 12.9511C6.65404 12.9548 6.65044 12.9579 6.64604 12.9579C6.64165 12.9579 6.63805 12.9671 6.63805 12.9784C6.63805 12.9896 6.63445 12.9988 6.63005 12.9988C6.62565 12.9988 6.62205 13.0111 6.62205 13.0261C6.62205 13.0412 6.61846 13.0534 6.61406 13.0534C6.60966 13.0534 6.60606 13.0627 6.60606 13.0739C6.60606 13.0852 6.60246 13.0944 6.59806 13.0944C6.59367 13.0944 6.59007 13.1036 6.59007 13.1149C6.59007 13.1261 6.58647 13.1354 6.58207 13.1354C6.57767 13.1354 6.57407 13.1446 6.57407 13.1558C6.57407 13.1671 6.57048 13.1763 6.56608 13.1763C6.56168 13.1763 6.55808 13.1855 6.55808 13.1968C6.55808 13.2081 6.55448 13.2173 6.55008 13.2173C6.54569 13.2173 6.54209 13.2296 6.54209 13.2446C6.54209 13.2596 6.53849 13.2719 6.53409 13.2719C6.52969 13.2719 6.52609 13.2811 6.52609 13.2924C6.52609 13.3036 6.5225 13.3128 6.5181 13.3128C6.5137 13.3128 6.5101 13.3221 6.5101 13.3333C6.5101 13.3446 6.5065 13.3538 6.5021 13.3538C6.49771 13.3538 6.49411 13.363 6.49411 13.3743C6.49411 13.3855 6.49051 13.3947 6.48611 13.3947C6.48171 13.3947 6.47811 13.407 6.47811 13.422C6.47811 13.4371 6.47452 13.4494 6.47012 13.4494C6.46572 13.4494 6.46212 13.4586 6.46212 13.4698C6.46212 13.4811 6.45852 13.4903 6.45412 13.4903C6.44973 13.4903 6.44613 13.4995 6.44613 13.5108C6.44613 13.5221 6.44253 13.5313 6.43813 13.5313C6.43373 13.5313 6.43013 13.5405 6.43013 13.5517C6.43013 13.563 6.42654 13.5722 6.42214 13.5722C6.41774 13.5722 6.41414 13.5845 6.41414 13.5995C6.41414 13.6145 6.41054 13.6268 6.40614 13.6268C6.40175 13.6268 6.39815 13.636 6.39815 13.6473C6.39815 13.6586 6.39455 13.6678 6.39015 13.6678C6.38575 13.6678 6.38215 13.677 6.38215 13.6883C6.38215 13.6995 6.37856 13.7087 6.37416 13.7087C6.36976 13.7087 6.36616 13.718 6.36616 13.7292C6.36616 13.7405 6.36256 13.7497 6.35816 13.7497C6.35377 13.7497 6.35017 13.762 6.35017 13.777C6.35017 13.792 6.34657 13.8043 6.34217 13.8043C6.33777 13.8043 6.33418 13.8135 6.33418 13.8248C6.33418 13.836 6.33058 13.8453 6.32618 13.8453C6.32178 13.8453 6.31818 13.8545 6.31818 13.8657C6.31818 13.877 6.31458 13.8862 6.31018 13.8862C6.30579 13.8862 6.30219 13.8954 6.30219 13.9067C6.30219 13.918 6.29859 13.9272 6.29419 13.9272C6.28979 13.9272 6.2862 13.9364 6.2862 13.9476C6.2862 13.9589 6.2826 13.9681 6.2782 13.9681C6.2738 13.9681 6.2702 13.9804 6.2702 13.9954C6.2702 14.0104 6.2666 14.0227 6.26221 14.0227C6.25781 14.0227 6.25421 14.0319 6.25421 14.0432C6.25421 14.0545 6.25061 14.0637 6.24621 14.0637C6.24181 14.0637 6.23822 14.0729 6.23822 14.0842C6.23822 14.0954 6.23462 14.1046 6.23022 14.1046C6.22582 14.1046 6.22222 14.1139 6.22222 14.1251C6.22222 14.1364 6.21862 14.1456 6.21423 14.1456C6.20983 14.1456 6.20623 14.1579 6.20623 14.1729C6.20623 14.1879 6.20263 14.2002 6.19823 14.2002C6.19383 14.2002 6.19024 14.2094 6.19024 14.2207C6.19024 14.2319 6.18664 14.2412 6.18224 14.2412C6.17784 14.2412 6.17424 14.2504 6.17424 14.2616C6.17424 14.2729 6.17064 14.2821 6.16625 14.2821C6.16185 14.2821 6.15825 14.2913 6.15825 14.3026C6.15825 14.3139 6.15465 14.3231 6.15025 14.3231C6.14585 14.3231 6.14226 14.3354 6.14226 14.3504C6.14226 14.3654 6.13866 14.3777 6.13426 14.3777C6.12986 14.3777 6.12626 14.3869 6.12626 14.3982C6.12626 14.4094 6.12266 14.4186 6.11827 14.4186C6.11387 14.4186 6.11027 14.4217 6.11027 14.4255C6.11027 14.43 6.34483 14.4323 6.79798 14.4323H7.48569V14.4118C7.48569 14.4005 7.48209 14.3913 7.47769 14.3913C7.4733 14.3913 7.4697 14.3821 7.4697 14.3709C7.4697 14.3596 7.4661 14.3504 7.4617 14.3504C7.4573 14.3504 7.4537 14.3412 7.4537 14.3299C7.4537 14.3186 7.4501 14.3094 7.44571 14.3094C7.44131 14.3094 7.43771 14.3002 7.43771 14.2889C7.43771 14.2777 7.43411 14.2685 7.42971 14.2685C7.42532 14.2685 7.42172 14.2593 7.42172 14.248C7.42172 14.2367 7.41812 14.2275 7.41372 14.2275C7.40932 14.2275 7.40572 14.2183 7.40572 14.207C7.40572 14.1958 7.40212 14.1866 7.39773 14.1866C7.39333 14.1866 7.38973 14.1773 7.38973 14.1661C7.38973 14.1548 7.38613 14.1456 7.38173 14.1456C7.37734 14.1456 7.37374 14.1364 7.37374 14.1251C7.37374 14.1139 7.37014 14.1046 7.36574 14.1046C7.36134 14.1046 7.35774 14.0954 7.35774 14.0842C7.35774 14.0729 7.35415 14.0637 7.34975 14.0637C7.34535 14.0637 7.34175 14.0545 7.34175 14.0432C7.34175 14.0319 7.33815 14.0227 7.33375 14.0227C7.32936 14.0227 7.32576 14.0135 7.32576 14.0023C7.32576 13.991 7.32216 13.9818 7.31776 13.9818C7.31336 13.9818 7.30976 13.9726 7.30976 13.9613C7.30976 13.95 7.30617 13.9408 7.30177 13.9408C7.29737 13.9408 7.29377 13.9316 7.29377 13.9203C7.29377 13.9091 7.29017 13.8999 7.28577 13.8999C7.28138 13.8999 7.27778 13.8907 7.27778 13.8794C7.27778 13.8681 7.27418 13.8589 7.26978 13.8589C7.26538 13.8589 7.26178 13.8497 7.26178 13.8384C7.26178 13.8272 7.25819 13.818 7.25379 13.818C7.24939 13.818 7.24579 13.8087 7.24579 13.7975C7.24579 13.7862 7.24219 13.777 7.23779 13.777C7.2334 13.777 7.2298 13.7678 7.2298 13.7565C7.2298 13.7453 7.2262 13.736 7.2218 13.736C7.2174 13.736 7.2138 13.7268 7.2138 13.7156C7.2138 13.7043 7.21021 13.6951 7.20581 13.6951C7.20141 13.6951 7.19781 13.6859 7.19781 13.6746C7.19781 13.6633 7.19421 13.6541 7.18981 13.6541C7.18542 13.6541 7.18182 13.6449 7.18182 13.6337C7.18182 13.6224 7.17822 13.6132 7.17382 13.6132C7.16942 13.6132 7.16582 13.604 7.16582 13.5927C7.16582 13.5814 7.16223 13.5722 7.15783 13.5722C7.15343 13.5722 7.14983 13.563 7.14983 13.5517C7.14983 13.5405 7.14623 13.5313 7.14183 13.5313C7.13744 13.5313 7.13384 13.5251 7.13384 13.5176C7.13384 13.5101 7.13024 13.504 7.12584 13.504C7.12144 13.504 7.11785 13.4947 7.11785 13.4835C7.11785 13.4722 7.11425 13.463 7.10985 13.463C7.10545 13.463 7.10185 13.4538 7.10185 13.4425C7.10185 13.4313 7.09825 13.422 7.09385 13.422C7.08946 13.422 7.08586 13.4128 7.08586 13.4016C7.08586 13.3903 7.08226 13.3811 7.07786 13.3811C7.07346 13.3811 7.06986 13.3719 7.06986 13.3606C7.06986 13.3494 7.06627 13.3401 7.06187 13.3401C7.05747 13.3401 7.05387 13.3309 7.05387 13.3197C7.05387 13.3084 7.05027 13.2992 7.04588 13.2992C7.04148 13.2992 7.03788 13.29 7.03788 13.2787C7.03788 13.2674 7.03428 13.2582 7.02988 13.2582C7.02548 13.2582 7.02189 13.249 7.02189 13.2377C7.02189 13.2265 7.01829 13.2173 7.01389 13.2173C7.00949 13.2173 7.00589 13.2081 7.00589 13.1968C7.00589 13.1855 7.00229 13.1763 6.9979 13.1763C6.9935 13.1763 6.9899 13.1671 6.9899 13.1558C6.9899 13.1446 6.9863 13.1354 6.9819 13.1354C6.9775 13.1354 6.97391 13.1261 6.97391 13.1149C6.97391 13.1036 6.97031 13.0944 6.96591 13.0944C6.96151 13.0944 6.95791 13.0852 6.95791 13.0739C6.95791 13.0627 6.95431 13.0534 6.94992 13.0534C6.94552 13.0534 6.94192 13.0442 6.94192 13.033C6.94192 13.0217 6.93832 13.0125 6.93392 13.0125C6.92952 13.0125 6.92593 13.0033 6.92593 12.992C6.92593 12.9808 6.92233 12.9715 6.91793 12.9715C6.91353 12.9715 6.90993 12.9623 6.90993 12.9511C6.90993 12.9398 6.90633 12.9306 6.90194 12.9306C6.89754 12.9306 6.89394 12.9214 6.89394 12.9101C6.89394 12.8988 6.89034 12.8896 6.88594 12.8896C6.88154 12.8896 6.87795 12.8804 6.87795 12.8691C6.87795 12.8579 6.87435 12.8487 6.86995 12.8487C6.86555 12.8487 6.86195 12.8395 6.86195 12.8282C6.86195 12.8169 6.85835 12.8077 6.85396 12.8077C6.84956 12.8077 6.84596 12.7985 6.84596 12.7872C6.84596 12.776 6.84236 12.7668 6.83796 12.7668C6.83356 12.7668 6.82997 12.7575 6.82997 12.7463C6.82997 12.735 6.82637 12.7258 6.82197 12.7258C6.81757 12.7258 6.81397 12.7166 6.81397 12.7053C6.81397 12.6941 6.81037 12.6848 6.80598 12.6848C6.80158 12.6848 6.79798 12.6756 6.79798 12.6644C6.79798 12.6531 6.79438 12.6439 6.78998 12.6439C6.78558 12.6439 6.78199 12.6347 6.78199 12.6234C6.78199 12.6122 6.77839 12.6029 6.77399 12.6029C6.76959 12.6029 6.76599 12.5937 6.76599 12.5825C6.76599 12.5712 6.76239 12.562 6.758 12.562C6.7536 12.562 6.75 12.5528 6.75 12.5415C6.75 12.5302 6.7464 12.521 6.742 12.521C6.7376 12.521 6.73401 12.5118 6.73401 12.5005C6.73401 12.4893 6.73041 12.4801 6.72601 12.4801C6.72161 12.4801 6.71801 12.4709 6.71801 12.4596C6.71801 12.4483 6.71441 12.4391 6.71002 12.4391C6.70562 12.4391 6.70202 12.4299 6.70202 12.4186C6.70202 12.4074 6.69842 12.3982 6.69402 12.3982C6.68963 12.3982 6.68603 12.3889 6.68603 12.3777C6.68603 12.3664 6.68243 12.3572 6.67803 12.3572C6.67363 12.3572 6.67003 12.348 6.67003 12.3367C6.67003 12.3255 6.66644 12.3162 6.66204 12.3162C6.65764 12.3162 6.65404 12.3101 6.65404 12.3026C6.65404 12.2951 6.65044 12.2889 6.64604 12.2889C6.64165 12.2889 6.63805 12.2797 6.63805 12.2685C6.63805 12.2572 6.63445 12.248 6.63005 12.248C6.62565 12.248 6.62205 12.2388 6.62205 12.2275C6.62205 12.2162 6.61846 12.207 6.61406 12.207C6.60966 12.207 6.60606 12.1978 6.60606 12.1866C6.60606 12.1753 6.60246 12.1661 6.59806 12.1661C6.59367 12.1661 6.59007 12.1569 6.59007 12.1456C6.59007 12.1343 6.58647 12.1251 6.58207 12.1251C6.57767 12.1251 6.57407 12.1159 6.57407 12.1046C6.57407 12.0934 6.57048 12.0842 6.56608 12.0842C6.56168 12.0842 6.55808 12.075 6.55808 12.0637C6.55808 12.0524 6.55448 12.0432 6.55008 12.0432C6.54569 12.0432 6.54209 12.034 6.54209 12.0227C6.54209 12.0115 6.53849 12.0023 6.53409 12.0023C6.52969 12.0023 6.52609 11.993 6.52609 11.9818C6.52609 11.9705 6.5225 11.9613 6.5181 11.9613C6.5137 11.9613 6.5101 11.9521 6.5101 11.9408C6.5101 11.9296 6.5065 11.9203 6.5021 11.9203C6.49771 11.9203 6.49411 11.9111 6.49411 11.8999C6.49411 11.8886 6.49051 11.8794 6.48611 11.8794C6.48171 11.8794 6.47811 11.8702 6.47811 11.8589C6.47811 11.8476 6.47452 11.8384 6.47012 11.8384C6.46572 11.8384 6.46212 11.8292 6.46212 11.818C6.46212 11.8067 6.45852 11.7975 6.45412 11.7975C6.44973 11.7975 6.44613 11.7883 6.44613 11.777C6.44613 11.7657 6.44253 11.7565 6.43813 11.7565C6.43373 11.7565 6.43013 11.7473 6.43013 11.736C6.43013 11.7248 6.42654 11.7156 6.42214 11.7156C6.41774 11.7156 6.41414 11.7064 6.41414 11.6951C6.41414 11.6838 6.41054 11.6746 6.40614 11.6746C6.40175 11.6746 6.39815 11.6654 6.39815 11.6541C6.39815 11.6429 6.39455 11.6337 6.39015 11.6337C6.38575 11.6337 6.38215 11.6244 6.38215 11.6132C6.38215 11.6019 6.37856 11.5927 6.37416 11.5927C6.36976 11.5927 6.36616 11.5835 6.36616 11.5722C6.36616 11.561 6.36256 11.5517 6.35816 11.5517C6.35377 11.5517 6.35017 11.5425 6.35017 11.5313C6.35017 11.52 6.34657 11.5108 6.34217 11.5108C6.33777 11.5108 6.33418 11.5016 6.33418 11.4903C6.33418 11.479 6.33058 11.4698 6.32618 11.4698C6.32178 11.4698 6.31818 11.4606 6.31818 11.4494C6.31818 11.4381 6.31458 11.4289 6.31018 11.4289C6.30579 11.4289 6.30219 11.4197 6.30219 11.4084C6.30219 11.3971 6.29859 11.3879 6.29419 11.3879Z" fill="#6B7A9C"/>
<path d="M9.32492 12.2889V11.818V11.347H10.4125C11.1322 11.347 11.5 11.3493 11.5 11.3538C11.5 11.3575 11.518 11.3606 11.54 11.3606C11.562 11.3606 11.58 11.3637 11.58 11.3674C11.58 11.3712 11.5944 11.3743 11.612 11.3743C11.6295 11.3743 11.6439 11.3773 11.6439 11.3811C11.6439 11.3848 11.6583 11.3879 11.6759 11.3879C11.6935 11.3879 11.7079 11.391 11.7079 11.3947C11.7079 11.3985 11.7187 11.4016 11.7319 11.4016C11.7451 11.4016 11.7559 11.4046 11.7559 11.4084C11.7559 11.4122 11.7667 11.4152 11.7799 11.4152C11.7931 11.4152 11.8039 11.4183 11.8039 11.4221C11.8039 11.4258 11.8111 11.4289 11.8199 11.4289C11.8287 11.4289 11.8359 11.4319 11.8359 11.4357C11.8359 11.4395 11.8467 11.4425 11.8598 11.4425C11.873 11.4425 11.8838 11.4456 11.8838 11.4494C11.8838 11.4531 11.891 11.4562 11.8998 11.4562C11.9086 11.4562 11.9158 11.4593 11.9158 11.463C11.9158 11.4668 11.923 11.4698 11.9318 11.4698C11.9406 11.4698 11.9478 11.4729 11.9478 11.4767C11.9478 11.4804 11.955 11.4835 11.9638 11.4835C11.9726 11.4835 11.9798 11.4866 11.9798 11.4903C11.9798 11.4941 11.987 11.4971 11.9958 11.4971C12.0046 11.4971 12.0118 11.5002 12.0118 11.504C12.0118 11.5077 12.0182 11.5108 12.026 11.5108C12.0338 11.5108 12.0454 11.5169 12.0518 11.5244C12.0581 11.5319 12.0697 11.5381 12.0775 11.5381C12.0853 11.5381 12.0918 11.5412 12.0918 11.5449C12.0918 11.5487 12.0982 11.5517 12.106 11.5517C12.1138 11.5517 12.1254 11.5579 12.1317 11.5654C12.1381 11.5729 12.1489 11.579 12.1557 11.579C12.1626 11.579 12.1734 11.5852 12.1797 11.5927C12.1861 11.6002 12.1968 11.6064 12.2037 11.6064C12.2106 11.6064 12.2214 11.6125 12.2277 11.62C12.234 11.6275 12.2441 11.6337 12.2501 11.6337C12.256 11.6337 12.2748 11.6459 12.2917 11.661C12.3086 11.676 12.3264 11.6883 12.3314 11.6883C12.3363 11.6883 12.3688 11.7128 12.4036 11.7429C12.4384 11.7729 12.4709 11.7975 12.4758 11.7975C12.4873 11.7975 12.5076 11.8148 12.5076 11.8246C12.5076 11.8287 12.54 11.8595 12.5795 11.893C12.6191 11.9265 12.6515 11.9574 12.6515 11.9616C12.6515 11.9658 12.6659 11.981 12.6835 11.9954C12.7011 12.0099 12.7155 12.0253 12.7155 12.0297C12.7155 12.0341 12.7263 12.0463 12.7395 12.0569C12.7527 12.0674 12.7635 12.0802 12.7635 12.0854C12.7635 12.0906 12.7707 12.0992 12.7795 12.1046C12.7883 12.1101 12.7955 12.1193 12.7955 12.1251C12.7955 12.131 12.8027 12.1402 12.8114 12.1456C12.8202 12.151 12.8274 12.1602 12.8274 12.1661C12.8274 12.1719 12.8346 12.1811 12.8434 12.1866C12.8522 12.192 12.8594 12.2019 12.8594 12.2085C12.8594 12.2152 12.863 12.2207 12.8674 12.2207C12.8718 12.2207 12.8754 12.2262 12.8754 12.2328C12.8754 12.2395 12.8826 12.2494 12.8914 12.2548C12.9002 12.2602 12.9074 12.2701 12.9074 12.2768C12.9074 12.2835 12.911 12.2889 12.9154 12.2889C12.9198 12.2889 12.9234 12.2951 12.9234 12.3026C12.9234 12.3101 12.927 12.3162 12.9314 12.3162C12.9358 12.3162 12.9394 12.3224 12.9394 12.3299C12.9394 12.3374 12.943 12.3436 12.9474 12.3436C12.9518 12.3436 12.9554 12.3497 12.9554 12.3572C12.9554 12.3647 12.959 12.3709 12.9634 12.3709C12.9678 12.3709 12.9714 12.377 12.9714 12.3845C12.9714 12.392 12.975 12.3982 12.9794 12.3982C12.9838 12.3982 12.9874 12.4043 12.9874 12.4118C12.9874 12.4193 12.991 12.4255 12.9954 12.4255C12.9998 12.4255 13.0034 12.4316 13.0034 12.4391C13.0034 12.4466 13.007 12.4528 13.0114 12.4528C13.0158 12.4528 13.0194 12.4589 13.0194 12.4664C13.0194 12.4739 13.023 12.4801 13.0274 12.4801C13.0318 12.4801 13.0354 12.4893 13.0354 12.5005C13.0354 12.5118 13.039 12.521 13.0434 12.521C13.0477 12.521 13.0513 12.5272 13.0513 12.5347C13.0513 12.5422 13.0549 12.5483 13.0593 12.5483C13.0637 12.5483 13.0673 12.5575 13.0673 12.5688C13.0673 12.5801 13.0709 12.5893 13.0753 12.5893C13.0797 12.5893 13.0833 12.5954 13.0833 12.6029C13.0833 12.6104 13.0869 12.6166 13.0913 12.6166C13.0957 12.6166 13.0993 12.6258 13.0993 12.6371C13.0993 12.6483 13.1029 12.6575 13.1073 12.6575C13.1117 12.6575 13.1153 12.6668 13.1153 12.678C13.1153 12.6893 13.1189 12.6985 13.1233 12.6985C13.1277 12.6985 13.1313 12.7108 13.1313 12.7258C13.1313 12.7408 13.1349 12.7531 13.1393 12.7531C13.1437 12.7531 13.1473 12.7623 13.1473 12.7736C13.1473 12.7848 13.1509 12.7941 13.1553 12.7941C13.1597 12.7941 13.1633 12.8064 13.1633 12.8214C13.1633 12.8364 13.1669 12.8487 13.1713 12.8487C13.1757 12.8487 13.1793 12.864 13.1793 12.8828C13.1793 12.9016 13.1829 12.9169 13.1873 12.9169C13.1917 12.9169 13.1953 12.9323 13.1953 12.9511C13.1953 12.9698 13.1989 12.9852 13.2033 12.9852C13.2077 12.9852 13.2113 13.0034 13.2113 13.0261C13.2113 13.0489 13.2148 13.0671 13.2193 13.0671C13.2241 13.0671 13.2273 13.0967 13.2273 13.1422C13.2273 13.1877 13.2304 13.2173 13.2353 13.2173C13.2403 13.2173 13.2433 13.2605 13.2433 13.3333C13.2433 13.4061 13.2403 13.4494 13.2353 13.4494C13.2304 13.4494 13.2273 13.4812 13.2273 13.5313C13.2273 13.5813 13.2242 13.6132 13.2193 13.6132C13.2148 13.6132 13.2113 13.6314 13.2113 13.6541C13.2113 13.6769 13.2077 13.6951 13.2033 13.6951C13.1988 13.6951 13.1953 13.7133 13.1953 13.736C13.1953 13.7588 13.1917 13.777 13.1873 13.777C13.1829 13.777 13.1793 13.7893 13.1793 13.8043C13.1793 13.8193 13.1757 13.8316 13.1713 13.8316C13.1669 13.8316 13.1633 13.8439 13.1633 13.8589C13.1633 13.8739 13.1597 13.8862 13.1553 13.8862C13.1509 13.8862 13.1473 13.8985 13.1473 13.9135C13.1473 13.9285 13.1437 13.9408 13.1393 13.9408C13.1349 13.9408 13.1313 13.95 13.1313 13.9613C13.1313 13.9726 13.1277 13.9818 13.1233 13.9818C13.1189 13.9818 13.1153 13.991 13.1153 14.0023C13.1153 14.0135 13.1117 14.0227 13.1073 14.0227C13.1029 14.0227 13.0993 14.0319 13.0993 14.0432C13.0993 14.0545 13.0957 14.0637 13.0913 14.0637C13.0869 14.0637 13.0833 14.0729 13.0833 14.0842C13.0833 14.0954 13.0797 14.1046 13.0753 14.1046C13.0709 14.1046 13.0673 14.1139 13.0673 14.1251C13.0673 14.1364 13.0637 14.1456 13.0593 14.1456C13.0549 14.1456 13.0513 14.1517 13.0513 14.1593C13.0513 14.1668 13.0477 14.1729 13.0434 14.1729C13.039 14.1729 13.0354 14.1821 13.0354 14.1934C13.0354 14.2046 13.0318 14.2139 13.0274 14.2139C13.023 14.2139 13.0194 14.22 13.0194 14.2275C13.0194 14.235 13.0158 14.2412 13.0114 14.2412C13.007 14.2412 13.0034 14.2473 13.0034 14.2548C13.0034 14.2623 12.9998 14.2685 12.9954 14.2685C12.991 14.2685 12.9874 14.2746 12.9874 14.2821C12.9874 14.2896 12.9838 14.2958 12.9794 14.2958C12.975 14.2958 12.9714 14.3019 12.9714 14.3094C12.9714 14.3169 12.9678 14.3231 12.9634 14.3231C12.959 14.3231 12.9554 14.3292 12.9554 14.3367C12.9554 14.3442 12.9518 14.3504 12.9474 14.3504C12.943 14.3504 12.9394 14.3565 12.9394 14.364C12.9394 14.3715 12.9358 14.3777 12.9314 14.3777C12.927 14.3777 12.9234 14.3838 12.9234 14.3913C12.9234 14.3988 12.9198 14.405 12.9154 14.405C12.911 14.405 12.9074 14.4111 12.9074 14.4186C12.9074 14.4261 12.9038 14.4323 12.8994 14.4323C12.895 14.4323 12.8914 14.4378 12.8914 14.4444C12.8914 14.4511 12.8842 14.461 12.8754 14.4664C12.8666 14.4718 12.8594 14.481 12.8594 14.4869C12.8594 14.4927 12.8522 14.502 12.8434 14.5074C12.8346 14.5128 12.8274 14.522 12.8274 14.5279C12.8274 14.5337 12.8202 14.5429 12.8114 14.5483C12.8027 14.5537 12.7955 14.563 12.7955 14.5688C12.7955 14.5747 12.7883 14.5839 12.7795 14.5893C12.7707 14.5947 12.7635 14.6039 12.7635 14.6098C12.7635 14.6156 12.7563 14.6248 12.7475 14.6302C12.7387 14.6357 12.7315 14.6442 12.7315 14.6493C12.7315 14.6544 12.7171 14.6704 12.6995 14.6848C12.6819 14.6993 12.6675 14.7144 12.6675 14.7185C12.6675 14.7282 12.3904 14.9647 12.3791 14.9647C12.3743 14.9647 12.3566 14.977 12.3396 14.992C12.3227 15.007 12.304 15.0193 12.2981 15.0193C12.2921 15.0193 12.282 15.0255 12.2757 15.033C12.2693 15.0405 12.2585 15.0466 12.2517 15.0466C12.2448 15.0466 12.234 15.0528 12.2277 15.0603C12.2214 15.0678 12.2106 15.0739 12.2037 15.0739C12.1968 15.0739 12.1861 15.0801 12.1797 15.0876C12.1734 15.0951 12.1626 15.1012 12.1557 15.1012C12.1489 15.1012 12.1381 15.1074 12.1317 15.1149C12.1254 15.1224 12.1138 15.1285 12.106 15.1285C12.0982 15.1285 12.0918 15.1316 12.0918 15.1354C12.0918 15.1391 12.0846 15.1422 12.0758 15.1422C12.067 15.1422 12.0598 15.1453 12.0598 15.149C12.0598 15.1528 12.0526 15.1558 12.0438 15.1558C12.035 15.1558 12.0278 15.1589 12.0278 15.1627C12.0278 15.1664 12.0206 15.1695 12.0118 15.1695C12.003 15.1695 11.9958 15.1726 11.9958 15.1763C11.9958 15.1801 11.9886 15.1831 11.9798 15.1831C11.971 15.1831 11.9638 15.1862 11.9638 15.19C11.9638 15.1937 11.9566 15.1968 11.9478 15.1968C11.939 15.1968 11.9318 15.1999 11.9318 15.2036C11.9318 15.2074 11.921 15.2104 11.9078 15.2104C11.8946 15.2104 11.8838 15.2135 11.8838 15.2173C11.8838 15.221 11.8766 15.2241 11.8678 15.2241C11.859 15.2241 11.8519 15.2272 11.8519 15.2309C11.8519 15.2347 11.8411 15.2377 11.8279 15.2377C11.8147 15.2377 11.8039 15.2408 11.8039 15.2446C11.8039 15.2483 11.7931 15.2514 11.7799 15.2514C11.7667 15.2514 11.7559 15.2545 11.7559 15.2582C11.7559 15.262 11.7451 15.2651 11.7319 15.2651C11.7187 15.2651 11.7079 15.2681 11.7079 15.2719C11.7079 15.2756 11.6935 15.2787 11.6759 15.2787C11.6583 15.2787 11.6439 15.2818 11.6439 15.2855C11.6439 15.2893 11.6259 15.2924 11.604 15.2924C11.582 15.2924 11.564 15.2954 11.564 15.2992C11.564 15.303 11.5426 15.306 11.516 15.306C11.4893 15.306 11.468 15.309 11.468 15.3128C11.468 15.3174 11.1055 15.3197 10.3965 15.3197H9.32492V14.1183V12.9169H9.88468H10.4444V13.6405V14.364H10.7003C10.8656 14.364 10.9562 14.3616 10.9562 14.3572C10.9562 14.3534 10.9776 14.3504 11.0042 14.3504C11.0309 14.3504 11.0522 14.3473 11.0522 14.3436C11.0522 14.3398 11.0666 14.3367 11.0842 14.3367C11.1018 14.3367 11.1162 14.3337 11.1162 14.3299C11.1162 14.3261 11.127 14.3231 11.1402 14.3231C11.1533 14.3231 11.1641 14.32 11.1641 14.3162C11.1641 14.3125 11.1749 14.3094 11.1881 14.3094C11.2013 14.3094 11.2121 14.3064 11.2121 14.3026C11.2121 14.2988 11.2229 14.2958 11.2361 14.2958C11.2493 14.2958 11.2601 14.2927 11.2601 14.2889C11.2601 14.2852 11.2673 14.2821 11.2761 14.2821C11.2849 14.2821 11.2921 14.279 11.2921 14.2753C11.2921 14.2715 11.2993 14.2685 11.3081 14.2685C11.3169 14.2685 11.3241 14.2654 11.3241 14.2616C11.3241 14.2579 11.3313 14.2548 11.3401 14.2548C11.3489 14.2548 11.3561 14.2517 11.3561 14.248C11.3561 14.2442 11.3633 14.2412 11.3721 14.2412C11.3808 14.2412 11.388 14.2381 11.388 14.2343C11.388 14.2306 11.3945 14.2275 11.4023 14.2275C11.4101 14.2275 11.4217 14.2214 11.428 14.2139C11.4344 14.2063 11.446 14.2002 11.4538 14.2002C11.4616 14.2002 11.468 14.1971 11.468 14.1934C11.468 14.1896 11.4734 14.1866 11.48 14.1866C11.4866 14.1866 11.492 14.1835 11.492 14.1797C11.492 14.176 11.4966 14.1729 11.5022 14.1729C11.5079 14.1729 11.5176 14.1668 11.524 14.1593C11.5303 14.1517 11.5402 14.1456 11.5458 14.1456C11.5584 14.1456 11.7719 13.9645 11.7719 13.9539C11.7719 13.9497 11.7827 13.9377 11.7959 13.9272C11.8091 13.9167 11.8199 13.9031 11.8199 13.8971C11.8199 13.8911 11.8235 13.8862 11.8279 13.8862C11.8323 13.8862 11.8359 13.8807 11.8359 13.8741C11.8359 13.8674 11.8431 13.8575 11.8519 13.8521C11.8606 13.8467 11.8678 13.8368 11.8678 13.8301C11.8678 13.8234 11.8714 13.818 11.8758 13.818C11.8802 13.818 11.8838 13.8118 11.8838 13.8043C11.8838 13.7968 11.8874 13.7907 11.8918 13.7907C11.8962 13.7907 11.8998 13.7845 11.8998 13.777C11.8998 13.7695 11.9034 13.7633 11.9078 13.7633C11.9122 13.7633 11.9158 13.7572 11.9158 13.7497C11.9158 13.7422 11.9194 13.736 11.9238 13.736C11.9282 13.736 11.9318 13.7268 11.9318 13.7156C11.9318 13.7043 11.9354 13.6951 11.9398 13.6951C11.9442 13.6951 11.9478 13.6889 11.9478 13.6814C11.9478 13.6739 11.9514 13.6678 11.9558 13.6678C11.9602 13.6678 11.9638 13.6555 11.9638 13.6405C11.9638 13.6255 11.9674 13.6132 11.9718 13.6132C11.9762 13.6132 11.9798 13.604 11.9798 13.5927C11.9798 13.5814 11.9834 13.5722 11.9878 13.5722C11.9922 13.5722 11.9958 13.5569 11.9958 13.5381C11.9958 13.5193 11.9994 13.504 12.0038 13.504C12.0087 13.504 12.0118 13.4723 12.0118 13.4226C12.0118 13.3642 12.0146 13.3402 12.0218 13.3373C12.0298 13.3341 12.0298 13.3325 12.0218 13.3293C12.0146 13.3265 12.0118 13.3024 12.0118 13.244C12.0118 13.1943 12.0087 13.1627 12.0038 13.1627C11.9994 13.1627 11.9958 13.1473 11.9958 13.1285C11.9958 13.1098 11.9922 13.0944 11.9878 13.0944C11.9834 13.0944 11.9798 13.0821 11.9798 13.0671C11.9798 13.0521 11.9762 13.0398 11.9718 13.0398C11.9674 13.0398 11.9638 13.0306 11.9638 13.0193C11.9638 13.0081 11.9602 12.9988 11.9558 12.9988C11.9514 12.9988 11.9478 12.9896 11.9478 12.9784C11.9478 12.9671 11.9442 12.9579 11.9398 12.9579C11.9354 12.9579 11.9318 12.9487 11.9318 12.9374C11.9318 12.9261 11.9282 12.9169 11.9238 12.9169C11.9194 12.9169 11.9158 12.9108 11.9158 12.9033C11.9158 12.8958 11.9122 12.8896 11.9078 12.8896C11.9034 12.8896 11.8998 12.8835 11.8998 12.876C11.8998 12.8685 11.8962 12.8623 11.8918 12.8623C11.8874 12.8623 11.8838 12.8562 11.8838 12.8487C11.8838 12.8412 11.8802 12.835 11.8758 12.835C11.8714 12.835 11.8678 12.8296 11.8678 12.8229C11.8678 12.8162 11.8606 12.8063 11.8519 12.8009C11.8431 12.7955 11.8359 12.7863 11.8359 12.7804C11.8359 12.7746 11.8287 12.7653 11.8199 12.7599C11.8111 12.7545 11.8039 12.7459 11.8039 12.7407C11.8039 12.7355 11.7931 12.7227 11.7799 12.7122C11.7667 12.7016 11.7559 12.6896 11.7559 12.6854C11.7559 12.6756 11.5748 12.521 11.5633 12.521C11.5584 12.521 11.5443 12.5118 11.532 12.5005C11.5197 12.4893 11.5046 12.4801 11.4986 12.4801C11.4925 12.4801 11.4824 12.4739 11.476 12.4664C11.4697 12.4589 11.4581 12.4528 11.4503 12.4528C11.4424 12.4528 11.436 12.4497 11.436 12.4459C11.436 12.4422 11.4288 12.4391 11.42 12.4391C11.4112 12.4391 11.404 12.436 11.404 12.4323C11.404 12.4285 11.3968 12.4255 11.388 12.4255C11.3793 12.4255 11.3721 12.4224 11.3721 12.4186C11.3721 12.4149 11.3649 12.4118 11.3561 12.4118C11.3473 12.4118 11.3401 12.4087 11.3401 12.405C11.3401 12.4012 11.3329 12.3982 11.3241 12.3982C11.3153 12.3982 11.3081 12.3951 11.3081 12.3913C11.3081 12.3876 11.3009 12.3845 11.2921 12.3845C11.2833 12.3845 11.2761 12.3814 11.2761 12.3777C11.2761 12.3739 11.2653 12.3709 11.2521 12.3709C11.2389 12.3709 11.2281 12.3678 11.2281 12.364C11.2281 12.3603 11.2209 12.3572 11.2121 12.3572C11.2033 12.3572 11.1961 12.3541 11.1961 12.3504C11.1961 12.3466 11.1817 12.3436 11.1641 12.3436C11.1465 12.3436 11.1322 12.3405 11.1322 12.3367C11.1322 12.333 11.1178 12.3299 11.1002 12.3299C11.0826 12.3299 11.0682 12.3268 11.0682 12.3231C11.0682 12.3193 11.0502 12.3162 11.0282 12.3162C11.0062 12.3162 10.9882 12.3132 10.9882 12.3094C10.9882 12.3053 10.9536 12.3026 10.9003 12.3026C10.8469 12.3026 10.8123 12.2999 10.8123 12.2958C10.8123 12.2913 10.5591 12.2889 10.0686 12.2889H9.32492Z" fill="#6B7A9C"/>
<path d="M13.5152 15.3197V13.3333V11.347H14.0909H14.6667V13.3333V15.3197H14.0909H13.5152Z" fill="#6B7A9C"/>
<path d="M6.7953 10.354C5.97967 8.87065 5.58912 7.19102 5.66663 5.5C5.58937 3.80899 5.9799 2.12943 6.7953 0.645996" stroke="#6B7A9C" stroke-width="1.2" stroke-linecap="round" stroke-linejoin="round"/>
<path d="M9.20459 10.354C10.0202 8.87065 10.4108 7.19102 10.3333 5.5C10.4105 3.80899 10.02 2.12943 9.20459 0.645996" stroke="#6B7A9C" stroke-width="1.2" stroke-linecap="round" stroke-linejoin="round"/>
<path d="M8 10.5C10.7614 10.5 13 8.26142 13 5.5C13 2.73858 10.7614 0.5 8 0.5C5.23858 0.5 3 2.73858 3 5.5C3 8.26142 5.23858 10.5 8 10.5Z" stroke="#6B7A9C" stroke-width="1.2" stroke-linecap="round" stroke-linejoin="round"/>
<path d="M3 5.5H13" stroke="#6B7A9C" stroke-width="1.2" stroke-linecap="round" stroke-linejoin="round"/>
<path d="M3.67065 3H12.328" stroke="#6B7A9C" stroke-width="1.2" stroke-linecap="round" stroke-linejoin="round"/>
<path d="M3.67065 8H12.328" stroke="#6B7A9C" stroke-width="1.2" stroke-linecap="round" stroke-linejoin="round"/>
</g>
<defs>
<clipPath id="clip0">
<rect width="16" height="16" fill="white"/>
</clipPath>
</defs>
</svg>
