<svg width="16" height="16" viewBox="0 0 16 16" fill="none" xmlns="http://www.w3.org/2000/svg">
<g clip-path="url(#clip0)">
<path d="M13.1667 5.5C13.1667 8.314 11.2114 9.93267 9.74608 11.5C8.86875 12.4387 8.16675 15.5 8.16675 15.5C8.16675 15.5 7.46675 12.4407 6.59141 11.5047C5.12475 9.938 3.16675 8.31667 3.16675 5.5C3.16675 4.17392 3.69353 2.90215 4.63121 1.96447C5.5689 1.02678 6.84067 0.5 8.16675 0.5C9.49283 0.5 10.7646 1.02678 11.7023 1.96447C12.64 2.90215 13.1667 4.17392 13.1667 5.5V5.5Z" stroke="#6B7A9C" stroke-width="1.2" stroke-linecap="round" stroke-linejoin="round"/>
<path d="M8.16675 7.5C9.27132 7.5 10.1667 6.60457 10.1667 5.5C10.1667 4.39543 9.27132 3.5 8.16675 3.5C7.06218 3.5 6.16675 4.39543 6.16675 5.5C6.16675 6.60457 7.06218 7.5 8.16675 7.5Z" stroke="#6B7A9C" stroke-width="1.2" stroke-linecap="round" stroke-linejoin="round"/>
</g>
<defs>
<clipPath id="clip0">
<rect width="16" height="16" fill="white"/>
</clipPath>
</defs>
</svg>
