<svg width="24" height="24" viewBox="0 0 24 24" fill="none" xmlns="http://www.w3.org/2000/svg">
<path d="M21 0.75H4.5C3.67157 0.75 3 1.42157 3 2.25V21.75C3 22.5784 3.67157 23.25 4.5 23.25H21C21.8284 23.25 22.5 22.5784 22.5 21.75V2.25C22.5 1.42157 21.8284 0.75 21 0.75Z" stroke="#45516D" stroke-width="1.5" stroke-linecap="round" stroke-linejoin="round"/>
<path d="M1.5 5.25H4.5" stroke="#45516D" stroke-width="1.5" stroke-linecap="round" stroke-linejoin="round"/>
<path d="M1.5 9.75H4.5" stroke="#45516D" stroke-width="1.5" stroke-linecap="round" stroke-linejoin="round"/>
<path d="M1.5 14.25H4.5" stroke="#45516D" stroke-width="1.5" stroke-linecap="round" stroke-linejoin="round"/>
<path d="M1.5 18.75H4.5" stroke="#45516D" stroke-width="1.5" stroke-linecap="round" stroke-linejoin="round"/>
<path d="M10.5 11.25C11.7426 11.25 12.75 10.0747 12.75 8.625C12.75 7.17525 11.7426 6 10.5 6C9.25736 6 8.25 7.17525 8.25 8.625C8.25 10.0747 9.25736 11.25 10.5 11.25Z" stroke="#45516D" stroke-width="1.5" stroke-linecap="round" stroke-linejoin="round"/>
<path d="M10.5 11.25V17.25" stroke="#45516D" stroke-width="1.5" stroke-linecap="round" stroke-linejoin="round"/>
<path d="M16.5 11.25V17.25" stroke="#45516D" stroke-width="1.5" stroke-linecap="round" stroke-linejoin="round"/>
<path d="M15 6V9.75C15 10.1478 15.158 10.5294 15.4393 10.8107C15.7206 11.092 16.1022 11.25 16.5 11.25C16.8978 11.25 17.2794 11.092 17.5607 10.8107C17.842 10.5294 18 10.1478 18 9.75V6" stroke="#45516D" stroke-width="1.5" stroke-linecap="round" stroke-linejoin="round"/>
</svg>
