<svg width="16" height="16" viewBox="0 0 16 16" fill="none" xmlns="http://www.w3.org/2000/svg">
<g clip-path="url(#clip0)">
<path d="M15.5093 7.05122C13.8753 7.39122 12.8613 5.76056 12.8613 5.76056C12.6088 6.1615 12.2611 6.49374 11.8491 6.72766C11.4371 6.96159 10.9736 7.08992 10.4999 7.10123C10.0525 7.09228 9.61576 6.96309 9.23548 6.7272C8.85519 6.49131 8.5454 6.15742 8.33861 5.76056V5.76056C8.03407 6.15648 7.64708 6.48145 7.20446 6.71295C6.76185 6.94444 6.27419 7.07693 5.77528 7.10123C5.30464 7.0783 4.846 6.94501 4.43638 6.71212C4.02677 6.47923 3.67767 6.15327 3.41728 5.76056V5.76056C3.41728 5.76056 2.10794 7.42123 0.509277 7.07789" stroke="#6B7A9C" stroke-width="1.2" stroke-linecap="round" stroke-linejoin="round"/>
<path d="M15.5093 4.05123C13.8753 4.39123 12.8613 2.76056 12.8613 2.76056C12.6088 3.1615 12.2611 3.49374 11.8491 3.72766C11.4371 3.96159 10.9736 4.08992 10.4999 4.10123C10.0525 4.09228 9.61576 3.96309 9.23548 3.7272C8.85519 3.49131 8.5454 3.15742 8.33861 2.76056C8.03407 3.15648 7.64708 3.48145 7.20446 3.71295C6.76185 3.94444 6.27419 4.07693 5.77528 4.10123C5.30464 4.0783 4.846 3.94501 4.43638 3.71212C4.02677 3.47923 3.67767 3.15327 3.41728 2.76056C3.41728 2.76056 2.10794 4.42123 0.509277 4.07789" stroke="#6B7A9C" stroke-width="1.2" stroke-linecap="round" stroke-linejoin="round"/>
<path d="M2.2561 13.178C3.2226 13.178 4.0061 12.3945 4.0061 11.428C4.0061 10.4615 3.2226 9.67798 2.2561 9.67798C1.28961 9.67798 0.506104 10.4615 0.506104 11.428C0.506104 12.3945 1.28961 13.178 2.2561 13.178Z" stroke="#6B7A9C" stroke-width="1.2" stroke-linecap="round" stroke-linejoin="round"/>
<path d="M13.7561 13.178C14.7226 13.178 15.5061 12.3945 15.5061 11.428C15.5061 10.4615 14.7226 9.67798 13.7561 9.67798C12.7896 9.67798 12.0061 10.4615 12.0061 11.428C12.0061 12.3945 12.7896 13.178 13.7561 13.178Z" stroke="#6B7A9C" stroke-width="1.2" stroke-linecap="round" stroke-linejoin="round"/>
<path d="M8.0061 13.178C8.9726 13.178 9.7561 12.3945 9.7561 11.428C9.7561 10.4615 8.9726 9.67798 8.0061 9.67798C7.03961 9.67798 6.2561 10.4615 6.2561 11.428C6.2561 12.3945 7.03961 13.178 8.0061 13.178Z" stroke="#6B7A9C" stroke-width="1.2" stroke-linecap="round" stroke-linejoin="round"/>
<path d="M0.506104 14.242C0.871098 13.9796 1.29038 13.8026 1.73297 13.7241C2.17555 13.6456 2.63013 13.6675 3.0631 13.7883C3.49607 13.9091 3.89637 14.1256 4.23441 14.4219C4.57245 14.7181 4.8396 15.0866 5.0161 15.5H5.24677C5.4774 14.959 5.86195 14.4978 6.35259 14.1736C6.84324 13.8494 7.41835 13.6765 8.00644 13.6765C8.59452 13.6765 9.16963 13.8494 9.66028 14.1736C10.1509 14.4978 10.5355 14.959 10.7661 15.5H11.0001C11.1766 15.0867 11.4438 14.7183 11.7817 14.4221C12.1197 14.1259 12.52 13.9095 12.9528 13.7887C13.3857 13.6679 13.8402 13.646 14.2827 13.7244C14.7252 13.8029 15.1445 13.9798 15.5094 14.242" stroke="#6B7A9C" stroke-width="1.2" stroke-linecap="round" stroke-linejoin="round"/>
</g>
<defs>
<clipPath id="clip0">
<rect width="16" height="16" fill="white"/>
</clipPath>
</defs>
</svg>
