<svg width="16" height="16" viewBox="0 0 16 16" fill="none" xmlns="http://www.w3.org/2000/svg">
<g clip-path="url(#clip0)">
<path d="M13.5 12.5027V13.5027C13.5 13.7679 13.3946 14.0223 13.2071 14.2098C13.0196 14.3973 12.7652 14.5027 12.5 14.5027H9.5" stroke="#45516D" stroke-width="1.2" stroke-linecap="round" stroke-linejoin="round"/>
<path d="M9.5 2.50269H12.5C12.7652 2.50269 13.0196 2.60804 13.2071 2.79558C13.3946 2.98312 13.5 3.23747 13.5 3.50269V4.50269" stroke="#45516D" stroke-width="1.2" stroke-linecap="round" stroke-linejoin="round"/>
<path d="M6.92933 15.4973L0.929334 14.6399C0.810172 14.6231 0.701114 14.5637 0.622228 14.4728C0.543342 14.3819 0.499936 14.2656 0.5 14.1453V2.48327C0.499906 2.36877 0.539113 2.25771 0.611069 2.16865C0.683025 2.07958 0.78337 2.01791 0.895334 1.99394L6.89533 0.513275C6.96826 0.497663 7.04376 0.498563 7.11629 0.515909C7.18883 0.533255 7.25656 0.566608 7.31454 0.613525C7.37251 0.660441 7.41926 0.719733 7.45135 0.787056C7.48344 0.854379 7.50006 0.928028 7.5 1.00261V15.0026C7.49995 15.0742 7.48453 15.145 7.45477 15.2101C7.42501 15.2752 7.38161 15.3332 7.3275 15.3801C7.27339 15.427 7.20984 15.4617 7.14115 15.482C7.07245 15.5022 7.00022 15.5074 6.92933 15.4973V15.4973Z" stroke="#45516D" stroke-width="1.2" stroke-linecap="round" stroke-linejoin="round"/>
<path d="M12 6.50208L10 8.50208H15.5" stroke="#45516D" stroke-width="1.2" stroke-linecap="round" stroke-linejoin="round"/>
<path d="M12 10.5021L10 8.50208" stroke="#45516D" stroke-width="1.2" stroke-linecap="round" stroke-linejoin="round"/>
<path d="M5.24999 7.75267C5.20043 7.75267 5.15199 7.7674 5.11082 7.79499C5.06965 7.82258 5.03761 7.86179 5.01877 7.90762C4.99993 7.95346 4.99514 8.00386 5.005 8.05243C5.01487 8.101 5.03894 8.14553 5.07417 8.18039C5.1094 8.21524 5.1542 8.23884 5.20287 8.24818C5.25154 8.25753 5.30189 8.25219 5.34752 8.23286C5.39315 8.21353 5.43201 8.18107 5.45916 8.13961C5.4863 8.09815 5.50051 8.04956 5.49999 8C5.50007 7.96715 5.49367 7.9346 5.48113 7.90423C5.4686 7.87385 5.45019 7.84626 5.42696 7.82303C5.40373 7.7998 5.37613 7.78138 5.34576 7.76885C5.31539 7.75632 5.28284 7.74991 5.24999 7.75" stroke="#45516D" stroke-width="1.2" stroke-linecap="round" stroke-linejoin="round"/>
</g>
<defs>
<clipPath id="clip0">
<rect width="16" height="16" fill="white"/>
</clipPath>
</defs>
</svg>
