<svg width="16" height="16" viewBox="0 0 16 16" fill="none" xmlns="http://www.w3.org/2000/svg">
<g clip-path="url(#clip0)">
<path d="M13.4993 12.5027V13.5027C13.4993 13.7679 13.3939 14.0223 13.2064 14.2098C13.0188 14.3973 12.7645 14.5027 12.4993 14.5027H9.49927" stroke="#45516D" stroke-width="1.2" stroke-linecap="round" stroke-linejoin="round"/>
<path d="M9.49927 2.50269H12.4993C12.7645 2.50269 13.0188 2.60804 13.2064 2.79558C13.3939 2.98312 13.4993 3.23747 13.4993 3.50269V4.50269" stroke="#45516D" stroke-width="1.2" stroke-linecap="round" stroke-linejoin="round"/>
<path d="M6.9286 15.4973L0.928601 14.6399C0.809498 14.6229 0.700519 14.5636 0.621658 14.4727C0.542798 14.3818 0.499343 14.2656 0.499268 14.1453V2.48327C0.499174 2.36877 0.538381 2.25771 0.610337 2.16865C0.682293 2.07958 0.782638 2.01791 0.894601 1.99394L6.8946 0.513275C6.96753 0.497663 7.04303 0.498563 7.11556 0.515909C7.1881 0.533255 7.25583 0.566608 7.31381 0.613525C7.37178 0.660441 7.41852 0.719733 7.45062 0.787056C7.48271 0.854379 7.49933 0.928028 7.49927 1.00261V15.0026C7.49922 15.0742 7.4838 15.145 7.45404 15.2101C7.42428 15.2752 7.38087 15.3332 7.32677 15.3801C7.27266 15.427 7.20911 15.4617 7.14042 15.482C7.07172 15.5022 6.99949 15.5074 6.9286 15.4973V15.4973Z" stroke="#45516D" stroke-width="1.2" stroke-linecap="round" stroke-linejoin="round"/>
<path d="M13.4993 6.50208L15.4993 8.50208H9.99927" stroke="#45516D" stroke-width="1.2" stroke-linecap="round" stroke-linejoin="round"/>
<path d="M13.5 10.5021L15.5 8.50208" stroke="#45516D" stroke-width="1.2" stroke-linecap="round" stroke-linejoin="round"/>
<path d="M5.24938 7.75267C5.19982 7.75267 5.15138 7.7674 5.11021 7.79499C5.06904 7.82258 5.037 7.86179 5.01816 7.90762C4.99932 7.95346 4.99453 8.00386 5.00439 8.05243C5.01426 8.101 5.03833 8.14553 5.07356 8.18039C5.10879 8.21524 5.15359 8.23884 5.20226 8.24818C5.25093 8.25753 5.30128 8.25219 5.34691 8.23286C5.39254 8.21353 5.4314 8.18107 5.45855 8.13961C5.48569 8.09815 5.4999 8.04956 5.49937 8C5.49946 7.96715 5.49306 7.9346 5.48052 7.90423C5.46799 7.87385 5.44958 7.84626 5.42635 7.82303C5.40312 7.7998 5.37552 7.78138 5.34515 7.76885C5.31478 7.75632 5.28223 7.74991 5.24938 7.75" stroke="#45516D" stroke-width="1.2" stroke-linecap="round" stroke-linejoin="round"/>
</g>
<defs>
<clipPath id="clip0">
<rect width="16" height="16" fill="white"/>
</clipPath>
</defs>
</svg>
