<svg width="16" height="16" viewBox="0 0 16 16" fill="none" xmlns="http://www.w3.org/2000/svg">
<g clip-path="url(#clip0)">
<path d="M11.5 3.5H4.5C3.94772 3.5 3.5 3.94772 3.5 4.5V11.5C3.5 12.0523 3.94772 12.5 4.5 12.5H11.5C12.0523 12.5 12.5 12.0523 12.5 11.5V4.5C12.5 3.94772 12.0523 3.5 11.5 3.5Z" stroke="#6B7A9C" stroke-width="1.2" stroke-linecap="round" stroke-linejoin="round"/>
<path d="M15.5 13.5V14.5C15.5 14.7652 15.3946 15.0196 15.2071 15.2071C15.0196 15.3946 14.7652 15.5 14.5 15.5H13.5" stroke="#6B7A9C" stroke-width="1.2" stroke-linecap="round" stroke-linejoin="round"/>
<path d="M13.5 0.5H14.5C14.7652 0.5 15.0196 0.605357 15.2071 0.792893C15.3946 0.98043 15.5 1.23478 15.5 1.5V2.5" stroke="#6B7A9C" stroke-width="1.2" stroke-linecap="round" stroke-linejoin="round"/>
<path d="M0.5 2.5V1.5C0.5 1.23478 0.605357 0.98043 0.792893 0.792893C0.98043 0.605357 1.23478 0.5 1.5 0.5H2.5" stroke="#6B7A9C" stroke-width="1.2" stroke-linecap="round" stroke-linejoin="round"/>
<path d="M2.5 15.5H1.5C1.23478 15.5 0.98043 15.3946 0.792893 15.2071C0.605357 15.0196 0.5 14.7652 0.5 14.5V13.5" stroke="#6B7A9C" stroke-width="1.2" stroke-linecap="round" stroke-linejoin="round"/>
<path d="M15.5 5V6.5" stroke="#6B7A9C" stroke-width="1.2" stroke-linecap="round" stroke-linejoin="round"/>
<path d="M15.5 9.5V11" stroke="#6B7A9C" stroke-width="1.2" stroke-linecap="round" stroke-linejoin="round"/>
<path d="M0.5 5V6.5" stroke="#6B7A9C" stroke-width="1.2" stroke-linecap="round" stroke-linejoin="round"/>
<path d="M0.5 9.5V11" stroke="#6B7A9C" stroke-width="1.2" stroke-linecap="round" stroke-linejoin="round"/>
<path d="M11 15.5H9.5" stroke="#6B7A9C" stroke-width="1.2" stroke-linecap="round" stroke-linejoin="round"/>
<path d="M6.5 15.5H5" stroke="#6B7A9C" stroke-width="1.2" stroke-linecap="round" stroke-linejoin="round"/>
<path d="M11 0.5H9.5" stroke="#6B7A9C" stroke-width="1.2" stroke-linecap="round" stroke-linejoin="round"/>
<path d="M6.5 0.5H5" stroke="#6B7A9C" stroke-width="1.2" stroke-linecap="round" stroke-linejoin="round"/>
</g>
<defs>
<clipPath id="clip0">
<rect width="16" height="16" fill="white"/>
</clipPath>
</defs>
</svg>
