<svg width="24" height="24" viewBox="0 0 24 24" fill="none" xmlns="http://www.w3.org/2000/svg">
<g clip-path="url(#clip0)">
<path d="M6.5 6C6.5 4.9122 6.82257 3.84883 7.42692 2.94436C8.03126 2.03989 8.89025 1.33494 9.89524 0.918662C10.9002 0.50238 12.0061 0.393462 13.073 0.605681C14.1399 0.817899 15.1199 1.34172 15.8891 2.11091C16.6583 2.8801 17.1821 3.86011 17.3943 4.927C17.6065 5.9939 17.4976 7.09977 17.0813 8.10476C16.6651 9.10975 15.9601 9.96874 15.0556 10.5731C14.1512 11.1774 13.0878 11.5 12 11.5C8.962 11.5 6.5 14 6.5 18V22.5C6.5 22.7652 6.60536 23.0196 6.79289 23.2071C6.98043 23.3946 7.23478 23.5 7.5 23.5H16.5C16.7652 23.5 17.0196 23.3946 17.2071 23.2071C17.3946 23.0196 17.5 22.7652 17.5 22.5V6" stroke="#45516D" stroke-width="1.5" stroke-linecap="round" stroke-linejoin="round"/>
<path d="M9.5 20.5H14.5" stroke="#45516D" stroke-width="1.5" stroke-linecap="round" stroke-linejoin="round"/>
</g>
<defs>
<clipPath id="clip0">
<rect width="24" height="24" fill="white"/>
</clipPath>
</defs>
</svg>
