<svg width="16" height="16" viewBox="0 0 16 16" fill="none" xmlns="http://www.w3.org/2000/svg">
<g clip-path="url(#clip0)">
<path d="M4.5 11.5V14.5" stroke="#6B7A9C" stroke-width="1.2" stroke-linecap="round" stroke-linejoin="round"/>
<path d="M4.5 4.25C5.4665 4.25 6.25 3.4665 6.25 2.5C6.25 1.5335 5.4665 0.75 4.5 0.75C3.5335 0.75 2.75 1.5335 2.75 2.5C2.75 3.4665 3.5335 4.25 4.5 4.25Z" stroke="#6B7A9C" stroke-width="1.2" stroke-linecap="round" stroke-linejoin="round"/>
<path d="M2.5 11.5H1.5C1.23478 11.5 0.98043 11.3946 0.792893 11.2071C0.605357 11.0196 0.5 10.7652 0.5 10.5V7.5C0.5 6.96957 0.710714 6.46086 1.08579 6.08579C1.46086 5.71071 1.96957 5.5 2.5 5.5H9C9.26522 5.5 9.51957 5.60536 9.70711 5.79289C9.89464 5.98043 10 6.23478 10 6.5C10 6.76522 9.89464 7.01957 9.70711 7.20711C9.51957 7.39464 9.26522 7.5 9 7.5H6.5V14.5C6.5 14.7652 6.39464 15.0196 6.20711 15.2071C6.01957 15.3946 5.76522 15.5 5.5 15.5C5.23478 15.5 4.98043 15.3946 4.79289 15.2071C4.60536 15.0196 4.5 14.7652 4.5 14.5C4.5 14.7652 4.39464 15.0196 4.20711 15.2071C4.01957 15.3946 3.76522 15.5 3.5 15.5C3.23478 15.5 2.98043 15.3946 2.79289 15.2071C2.60536 15.0196 2.5 14.7652 2.5 14.5L2.49533 8" stroke="#6B7A9C" stroke-width="1.2" stroke-linecap="round" stroke-linejoin="round"/>
<path d="M8.5 2V1.5C8.5 1.23478 8.60536 0.98043 8.79289 0.792893C8.98043 0.605357 9.23478 0.5 9.5 0.5H14.5C14.7652 0.5 15.0196 0.605357 15.2071 0.792893C15.3946 0.98043 15.5 1.23478 15.5 1.5V7.5C15.5 7.76522 15.3946 8.01957 15.2071 8.20711C15.0196 8.39464 14.7652 8.5 14.5 8.5H11.5" stroke="#6B7A9C" stroke-width="1.2" stroke-linecap="round" stroke-linejoin="round"/>
<path d="M13.5 2.25C13.5663 2.25 13.6299 2.27634 13.6768 2.32322C13.7237 2.37011 13.75 2.4337 13.75 2.5" stroke="#6B7A9C" stroke-width="1.2" stroke-linecap="round" stroke-linejoin="round"/>
<path d="M13.25 2.5C13.25 2.4337 13.2763 2.37011 13.3232 2.32322C13.3701 2.27634 13.4337 2.25 13.5 2.25" stroke="#6B7A9C" stroke-width="1.2" stroke-linecap="round" stroke-linejoin="round"/>
<path d="M13.5 2.75C13.4337 2.75 13.3701 2.72366 13.3232 2.67678C13.2763 2.62989 13.25 2.5663 13.25 2.5" stroke="#6B7A9C" stroke-width="1.2" stroke-linecap="round" stroke-linejoin="round"/>
<path d="M13.75 2.5C13.75 2.5663 13.7237 2.62989 13.6768 2.67678C13.6299 2.72366 13.5663 2.75 13.5 2.75" stroke="#6B7A9C" stroke-width="1.2" stroke-linecap="round" stroke-linejoin="round"/>
<path d="M13 4.5C13 4.89782 12.842 5.27936 12.5607 5.56066C12.2794 5.84196 11.8978 6 11.5 6" stroke="#6B7A9C" stroke-width="1.2" stroke-linecap="round" stroke-linejoin="round"/>
<path d="M14.5 8.5V12.5" stroke="#6B7A9C" stroke-width="1.2" stroke-linecap="round" stroke-linejoin="round"/>
</g>
<defs>
<clipPath id="clip0">
<rect width="16" height="16" fill="white"/>
</clipPath>
</defs>
</svg>
