<svg width="16" height="16" fill="none" xmlns="http://www.w3.org/2000/svg"><g clip-path="url(#clip0)" stroke="#6B7A9C" stroke-width="1.2" stroke-linecap="round" stroke-linejoin="round"><path d="M12 9.032V5.51a2 2 0 00-2-2H6a2 2 0 00-2 2v3.523"/><path d="M15 10.232L8.371 7.58a1 1 0 00-.742 0L1 10.232m1.239-.496l1.06 3.173m4.701-.4v-5m5.761 2.227l-1.108 3.318"/><path d="M13.098 11.722L8 9.681l-5.098 2.04M.5 15.509a3.674 3.674 0 003-1 3.03 3.03 0 004.5 0 3.03 3.03 0 004.5 0 3.674 3.674 0 003 1m-9.5-10h4m-1-4.5a.5.5 0 00-.5-.5h-1a.5.5 0 00-.5.5v2.5h2v-2.5z"/></g><defs><clipPath id="clip0"><path fill="#fff" d="M0 0h16v16H0z"/></clipPath></defs></svg>