<svg width="16" height="16" fill="none" xmlns="http://www.w3.org/2000/svg"><g clip-path="url(#clip0)" stroke="#6B7A9C" stroke-width="1.2" stroke-linecap="round" stroke-linejoin="round"><path d="M15.51 7.051c-1.635.34-2.649-1.29-2.649-1.29A2.87 2.87 0 0110.5 7.1a2.493 2.493 0 01-2.161-1.34v0A3.445 3.445 0 015.775 7.1a3.005 3.005 0 01-2.358-1.34v0S2.108 7.42.51 7.078m15-3.027c-1.635.34-2.649-1.29-2.649-1.29A2.87 2.87 0 0110.5 4.1a2.493 2.493 0 01-2.161-1.34A3.445 3.445 0 015.775 4.1a3.005 3.005 0 01-2.358-1.34S2.108 4.42.51 4.077m1.746 9.101a1.75 1.75 0 100-3.5 1.75 1.75 0 000 3.5zm11.5 0a1.75 1.75 0 100-3.5 1.75 1.75 0 000 3.5zm-5.75 0a1.75 1.75 0 100-3.5 1.75 1.75 0 000 3.5zm-7.5 1.064a3 3 0 014.51 1.258h.23a3 3 0 015.52 0H11a3 3 0 014.51-1.258"/></g><defs><clipPath id="clip0"><path fill="#fff" d="M0 0h16v16H0z"/></clipPath></defs></svg>