<svg width="16" height="16" viewBox="0 0 16 16" fill="none" xmlns="http://www.w3.org/2000/svg">
<g clip-path="url(#clip0)">
<path d="M15.5093 7.05116C13.8753 7.39116 12.8613 5.7605 12.8613 5.7605C12.6089 6.16144 12.2612 6.49368 11.8492 6.7276C11.4372 6.96152 10.9737 7.08986 10.5 7.10116C10.0526 7.09222 9.61583 6.96303 9.23554 6.72714C8.85525 6.49125 8.54546 6.15736 8.33867 5.7605V5.7605C8.03413 6.15642 7.64714 6.48139 7.20453 6.71289C6.76191 6.94438 6.27425 7.07687 5.77534 7.10116C5.3047 7.07824 4.84606 6.94495 4.43644 6.71206C4.02683 6.47917 3.67773 6.15321 3.41734 5.7605V5.7605C3.41734 5.7605 2.10801 7.42116 0.509338 7.07783" stroke="#6B7A9C" stroke-width="1.2" stroke-linecap="round" stroke-linejoin="round"/>
<path d="M15.5093 4.05116C13.8753 4.39116 12.8613 2.7605 12.8613 2.7605C12.6089 3.16144 12.2612 3.49368 11.8492 3.7276C11.4372 3.96153 10.9737 4.08986 10.5 4.10116C10.0526 4.09222 9.61583 3.96303 9.23554 3.72714C8.85525 3.49125 8.54546 3.15736 8.33867 2.7605C8.03413 3.15642 7.64714 3.48139 7.20453 3.71289C6.76191 3.94438 6.27425 4.07687 5.77534 4.10116C5.3047 4.07824 4.84606 3.94495 4.43644 3.71206C4.02683 3.47917 3.67773 3.15321 3.41734 2.7605C3.41734 2.7605 2.10801 4.42117 0.509338 4.07783" stroke="#6B7A9C" stroke-width="1.2" stroke-linecap="round" stroke-linejoin="round"/>
<path d="M2.25598 13.178C3.22248 13.178 4.00598 12.3945 4.00598 11.428C4.00598 10.4615 3.22248 9.67798 2.25598 9.67798C1.28948 9.67798 0.505981 10.4615 0.505981 11.428C0.505981 12.3945 1.28948 13.178 2.25598 13.178Z" stroke="#6B7A9C" stroke-width="1.2" stroke-linecap="round" stroke-linejoin="round"/>
<path d="M13.756 13.178C14.7225 13.178 15.506 12.3945 15.506 11.428C15.506 10.4615 14.7225 9.67798 13.756 9.67798C12.7895 9.67798 12.006 10.4615 12.006 11.428C12.006 12.3945 12.7895 13.178 13.756 13.178Z" stroke="#6B7A9C" stroke-width="1.2" stroke-linecap="round" stroke-linejoin="round"/>
<path d="M8.00598 13.178C8.97248 13.178 9.75598 12.3945 9.75598 11.428C9.75598 10.4615 8.97248 9.67798 8.00598 9.67798C7.03948 9.67798 6.25598 10.4615 6.25598 11.428C6.25598 12.3945 7.03948 13.178 8.00598 13.178Z" stroke="#6B7A9C" stroke-width="1.2" stroke-linecap="round" stroke-linejoin="round"/>
<path d="M0.505981 14.242C0.870976 13.9796 1.29026 13.8026 1.73285 13.7241C2.17543 13.6456 2.63001 13.6675 3.06298 13.7883C3.49595 13.9091 3.89625 14.1256 4.23429 14.4219C4.57233 14.7181 4.83948 15.0866 5.01598 15.5H5.24665C5.47728 14.959 5.86182 14.4978 6.35247 14.1736C6.84312 13.8494 7.41823 13.6765 8.00631 13.6765C8.5944 13.6765 9.16951 13.8494 9.66016 14.1736C10.1508 14.4978 10.5353 14.959 10.766 15.5H11C11.1765 15.0867 11.4436 14.7183 11.7816 14.4221C12.1196 14.1259 12.5198 13.9095 12.9527 13.7887C13.3856 13.6679 13.8401 13.646 14.2826 13.7244C14.7251 13.8029 15.1443 13.9798 15.5093 14.242" stroke="#6B7A9C" stroke-width="1.2" stroke-linecap="round" stroke-linejoin="round"/>
</g>
<defs>
<clipPath id="clip0">
<rect width="16" height="16" fill="white"/>
</clipPath>
</defs>
</svg>
