<svg width="16" height="16" fill="none" xmlns="http://www.w3.org/2000/svg"><g clip-path="url(#clip0)"><path d="M2 12.275v-.942h.92c.607 0 .92.003.92.007s.023.007.055.007.056.003.056.007.018.007.04.007c.022 0 .04.003.04.006 0 .004.015.007.032.007.018 0 .032.003.032.007s.01.007.024.007c.013 0 .024.003.024.007 0 .003.01.007.024.007.013 0 .024.003.024.006 0 .004.01.007.024.007.013 0 .024.003.024.007s.007.007.016.007c.009 0 .016.003.016.007 0 .003.01.007.024.007.013 0 .024.002.024.006s.007.007.016.007c.009 0 .016.003.016.007s.007.007.016.007c.009 0 .016.003.016.007 0 .003.007.006.016.006.009 0 .016.003.016.007s.006.007.014.007a.04.04 0 01.026.014.04.04 0 00.026.013c.008 0 .014.003.014.007s.006.007.014.007a.04.04 0 01.026.014c.006.007.016.013.022.013.007 0 .022.01.034.02.012.012.027.021.032.021.005 0 .023.013.04.028a.13.13 0 00.04.027c.01 0 .128.1.128.11a.17.17 0 00.04.04c.022.018.04.037.04.043 0 .005.007.013.016.019.009.005.016.014.016.02s.007.015.016.02c.009.006.016.015.016.02 0 .007.007.016.016.021.009.006.016.016.016.022 0 .007.003.012.008.012.004 0 .008.007.008.014 0 .008.003.014.008.014.004 0 .008.006.008.014 0 .007.003.013.008.013.004 0 .008.006.008.014 0 .007.003.013.008.013.004 0 .008.007.008.014 0 .008.003.014.008.014.004 0 .008.006.008.013 0 .008.003.014.008.014.004 0 .008.01.008.02 0 .012.003.021.008.021.004 0 .008.006.008.014 0 .007.003.013.008.013.004 0 .008.013.008.028 0 .015.003.027.008.027.004 0 .008.01.008.02 0 .012.003.02.008.02.004 0 .008.016.008.035 0 .019.003.034.008.034.004 0 .008.018.008.041 0 .023.003.041.008.041s.008.055.008.15c0 .096-.003.15-.008.15s-.008.02-.008.048c0 .027-.004.048-.008.048-.005 0-.008.012-.008.027s-.004.028-.008.028c-.005 0-.008.012-.008.027s-.004.027-.008.027c-.005 0-.008.01-.008.02 0 .012-.004.021-.008.021-.005 0-.008.01-.008.02 0 .012-.004.021-.008.021-.005 0-.008.006-.008.014 0 .007-.004.013-.008.013-.005 0-.008.01-.008.02 0 .012-.004.021-.008.021-.005 0-.008.007-.008.014 0 .008-.004.014-.008.014-.005 0-.008.006-.008.013 0 .008-.004.014-.008.014-.005 0-.008.006-.008.014 0 .007-.004.013-.008.013-.005 0-.008.006-.008.012 0 .007-.007.017-.016.022-.01.006-.016.016-.016.022 0 .007-.004.013-.008.013-.005 0-.008.005-.008.012 0 .006-.007.016-.016.022-.009.005-.016.014-.016.019 0 .005-.011.018-.024.028-.013.01-.024.023-.024.027 0 .01-.245.22-.257.22-.005 0-.019.008-.031.02-.012.01-.027.02-.034.02-.006 0-.016.006-.022.014-.006.007-.017.013-.024.013-.007 0-.018.007-.024.014-.006.008-.017.014-.024.014-.007 0-.018.006-.024.013a.04.04 0 01-.026.014c-.008 0-.014.003-.014.007s-.007.007-.016.007c-.009 0-.016.003-.016.007 0 .003-.007.006-.016.006-.009 0-.016.003-.016.007s-.007.007-.016.007c-.009 0-.016.003-.016.007s-.01.007-.024.007c-.013 0-.024.003-.024.007 0 .003-.007.006-.016.006-.009 0-.016.003-.016.007s-.01.007-.024.007c-.013 0-.024.003-.024.007 0 .003-.007.007-.016.007-.009 0-.016.003-.016.006 0 .004-.014.007-.032.007-.017 0-.032.003-.032.007s-.01.007-.024.007c-.013 0-.024.003-.024.007s-.018.007-.04.007c-.022 0-.04.003-.04.006 0 .004-.018.007-.04.007-.022 0-.04.003-.04.007s-.032.007-.08.007-.08.003-.08.007-.109.007-.312.007h-.311v1.447H2v-2.403h.824c.543 0 .823-.002.823-.007 0-.004.011-.007.024-.007.013 0 .024-.003.024-.007 0-.003.007-.006.016-.006.01 0 .016-.004.016-.007 0-.004.006-.007.013-.007.007 0 .023-.01.035-.02.013-.012.027-.021.032-.021.012 0 .032-.017.032-.028 0-.004.011-.016.024-.027.013-.01.024-.024.024-.03 0-.006.004-.01.008-.01.005 0 .008-.01.008-.021 0-.011.004-.02.008-.02.005 0 .008-.01.008-.021 0-.011.004-.02.008-.02.005 0 .008-.025.008-.062 0-.036-.003-.061-.008-.061-.004 0-.008-.013-.008-.028 0-.015-.003-.027-.008-.027-.004 0-.008-.006-.008-.014 0-.007-.003-.013-.008-.013-.004 0-.008-.006-.008-.012 0-.007-.007-.017-.016-.022-.009-.006-.016-.014-.016-.02 0-.011-.036-.042-.05-.042-.005 0-.015-.006-.022-.013a.04.04 0 00-.026-.014c-.007 0-.014-.003-.014-.007s-.007-.007-.016-.007c-.009 0-.016-.003-.016-.007 0-.003-.007-.006-.016-.006-.009 0-.016-.004-.016-.007 0-.004-.018-.007-.04-.007-.022 0-.04-.003-.04-.007s-.272-.007-.8-.007H2zm4.294-.887c-.004 0-.008-.01-.008-.02v-.021h.592c.586 0 .592 0 .592.014 0 .007.003.013.008.013.004 0 .008.01.008.02 0 .012.003.021.008.021.004 0 .008.01.008.02 0 .012.003.021.008.021.004 0 .008.01.008.02 0 .012.003.021.008.021.004 0 .008.01.008.02 0 .012.003.021.008.021.004 0 .008.01.008.02 0 .012.003.021.008.021.004 0 .008.01.008.02 0 .012.003.02.008.02.004 0 .008.01.008.021 0 .012.003.02.008.02.004 0 .008.007.008.014 0 .008.003.014.008.014.004 0 .008.01.008.02 0 .012.003.021.008.021.004 0 .008.01.008.02 0 .012.003.021.008.021.004 0 .008.01.008.02 0 .012.003.021.008.021.004 0 .008.01.008.02 0 .012.003.021.008.021.004 0 .008.01.008.02 0 .012.003.021.008.021.004 0 .008.01.008.02 0 .012.003.02.008.02.004 0 .008.01.008.021 0 .012.003.02.008.02.004 0 .008.01.008.021 0 .012.003.02.008.02.004 0 .008.01.008.021 0 .012.003.02.008.02.004 0 .008.007.008.014 0 .008.003.014.008.014.004 0 .008.01.008.02 0 .012.003.021.008.021.004 0 .008.01.008.02 0 .012.003.021.008.021.004 0 .008.01.008.02 0 .012.003.021.008.021.004 0 .008.01.008.02 0 .012.003.02.008.02.004 0 .008.01.008.021 0 .012.003.02.008.02.004 0 .008.01.008.021 0 .012.003.02.008.02.004 0 .008.01.008.021 0 .012.003.02.008.02.004 0 .008.01.008.021 0 .011.003.02.008.02.004 0 .008.01.008.021 0 .011.003.02.008.02.004 0 .008.007.008.014 0 .008.003.014.008.014.004 0 .008.01.008.02 0 .012.003.021.007.021.005 0 .008.01.008.02 0 .012.004.02.008.02.005 0 .008.01.008.021 0 .012.004.02.008.02.005 0 .008.01.008.021 0 .012.004.02.008.02.005 0 .008.01.008.021 0 .012.004.02.008.02.005 0 .008.01.008.021 0 .011.004.02.008.02.005 0 .008.01.008.021 0 .011.004.02.008.02.005 0 .008.01.008.021 0 .011.004.02.008.02.005 0 .008.01.008.021 0 .011.004.02.008.02.005 0 .008.01.008.021 0 .011.004.02.008.02.005 0 .008.007.008.014 0 .008.004.014.008.014.005 0 .008.01.008.02 0 .012.004.02.008.02.005 0 .008.01.008.021 0 .012.004.02.008.02.005 0 .008.01.008.021 0 .011.004.02.008.02.005 0 .008.01.008.021 0 .011.004.02.008.02.005 0 .008.01.008.021 0 .011.004.02.008.02.005 0 .008.01.008.021 0 .011.004.02.008.02.005 0 .008.01.008.021 0 .011.004.02.008.02.005 0 .008.01.008.021 0 .011.004.02.008.02.005 0 .008.01.008.021 0 .011.004.02.008.02.005 0 .008.007.008.014 0 .008.004.014.008.014.005 0 .008.009.008.02 0 .011.004.02.008.02.005 0 .008.01.008.021 0 .011.004.02.008.02.005 0 .008.01.008.021 0 .011.004.02.008.02.005 0 .008.01.008.021 0 .011.004.02.008.02.005 0 .008.01.008.021 0 .011.004.02.008.02.005 0 .008.01.008.021 0 .011.004.02.008.02.005 0 .008.01.008.021 0 .011.004.02.008.02.005 0 .008.01.008.02 0 .012.004.021.008.021.005 0 .008.01.008.02 0 .012.004.021.008.021.005 0 .008.007.008.014 0 .008.004.014.008.014.005 0 .008.009.008.02 0 .011.004.02.008.02.005 0 .008.01.008.021 0 .011.004.02.008.02.005 0 .008.01.008.021 0 .011.004.02.008.02.005 0 .008.01.008.021 0 .011.004.02.008.02.005 0 .008.01.008.021 0 .011.004.02.008.02.005 0 .008.01.008.02 0 .012.004.021.008.021.005 0 .008.01.008.02 0 .012.004.021.008.021.005 0 .008.01.008.02 0 .012.004.021.008.021.005 0 .008.01.008.02 0 .012.004.021.008.021.005 0 .008.006.008.014 0 .007.004.014.008.014.005 0 .008.009.008.02 0 .011.004.02.008.02.005 0 .008.01.008.021 0 .011.004.02.008.02.005 0 .008.01.008.021 0 .011.004.02.008.02.005 0 .008.01.008.02 0 .012.004.021.008.021.005 0 .008.01.008.02 0 .012.004.021.008.021.005 0 .008.01.008.02 0 .012.004.021.008.021.005 0 .008.01.008.02 0 .012.004.021.008.021.005 0 .008.01.008.02 0 .012.004.021.008.021.005 0 .008.01.008.02 0 .012.004.021.008.021.005 0 .008.006.008.014 0 .007.004.014.008.014.005 0 .008.009.008.02 0 .011.004.02.008.02.005 0 .008.01.008.02 0 .012.004.021.008.021.005 0 .008.01.008.02 0 .012.004.021.008.021.005 0 .008.01.008.02 0 .012.004.021.008.021.005 0 .008.01.008.02 0 .012.004.021.008.021.005 0 .008.01.008.02 0 .012.004.021.008.021.005 0 .008.01.008.02 0 .012.004.021.008.021.005 0 .008.01.008.02 0 .012.004.021.008.021.005 0 .008.01.008.02 0 .012.004.021.008.021.005 0 .008.01.008.02 0 .012.004.021.008.021s.008.006.008.014c0 .007.004.013.008.013s.008.01.008.02c0 .012.004.021.008.021s.008.01.008.02c0 .012.004.021.008.021s.008.01.008.02c0 .012.004.021.008.021s.008.01.008.02c0 .012.004.021.008.021s.008.01.008.02c0 .012.004.021.008.021s.008.01.008.02c0 .012.004.021.008.021s.008.01.008.02c0 .012.004.021.008.021s.008.01.008.02c0 .012.004.021.008.021s.008.01.008.02c0 .012.004.02.008.02s.008.007.008.015c0 .013-.005.013-2.247.013s-2.247 0-2.247-.013c0-.008.004-.014.008-.014s.008-.01.008-.02c0-.012.004-.021.008-.021s.008-.01.008-.02c0-.012.003-.021.008-.021.004 0 .008-.01.008-.02 0-.012.003-.02.008-.02.004 0 .008-.01.008-.021 0-.012.003-.02.008-.02.004 0 .008-.01.008-.021 0-.012.003-.02.008-.02.004 0 .008-.01.008-.021 0-.012.003-.02.008-.02.004 0 .008-.01.008-.021 0-.011.003-.02.008-.02.004 0 .008-.013.008-.028 0-.015.003-.027.008-.027.004 0 .008-.01.008-.02 0-.012.003-.021.008-.021.004 0 .008-.01.008-.02 0-.012.003-.021.008-.021.004 0 .008-.01.008-.02 0-.012.003-.021.008-.021.004 0 .008-.01.008-.02 0-.012.003-.021.008-.021.004 0 .008-.01.008-.02 0-.012.003-.021.008-.021.004 0 .008-.01.008-.02 0-.012.003-.021.008-.021.004 0 .008-.01.008-.02 0-.012.003-.021.008-.021.004 0 .008-.01.008-.02 0-.012.003-.021.008-.021.004 0 .008-.012.008-.027s.003-.028.008-.028c.004 0 .008-.009.008-.02 0-.011.003-.02.008-.02.004 0 .008-.01.008-.021 0-.011.003-.02.008-.02.004 0 .008-.01.008-.021 0-.011.003-.02.008-.02.004 0 .008-.01.008-.02 0-.012.003-.021.008-.021.004 0 .008-.01.008-.02 0-.012.003-.021.008-.021.004 0 .008-.01.008-.02 0-.012.003-.021.008-.021.004 0 .008-.01.008-.02 0-.012.003-.021.008-.021.004 0 .008-.01.008-.02 0-.012.003-.021.008-.021.004 0 .008-.01.008-.02 0-.012.003-.021.008-.021.004 0 .008-.013.008-.027 0-.015.003-.028.008-.028.004 0 .008-.009.008-.02 0-.012.003-.02.008-.02.004 0 .008-.01.008-.021 0-.012.003-.02.008-.02.004 0 .008-.01.008-.021 0-.011.003-.02.008-.02.004 0 .008-.01.008-.021 0-.011.003-.02.008-.02.004 0 .008-.01.008-.021 0-.011.003-.02.008-.02.004 0 .008-.01.008-.021 0-.011.003-.02.008-.02.004 0 .008-.01.008-.021 0-.011.003-.02.008-.02.004 0 .008-.01.008-.021 0-.011.003-.02.008-.02.004 0 .008-.013.008-.028 0-.015.003-.027.008-.027.004 0 .008-.01.008-.02 0-.012.003-.021.008-.021.004 0 .008-.01.008-.02 0-.012.003-.021.008-.021.004 0 .008-.01.008-.02 0-.012.003-.02.008-.02.004 0 .008-.01.008-.021 0-.012.003-.02.008-.02.004 0 .008-.01.008-.021 0-.012.003-.02.008-.02.004 0 .008-.01.008-.021 0-.012.003-.02.008-.02.004 0 .008-.01.008-.021 0-.011.003-.02.008-.02.004 0 .008-.01.008-.021 0-.011.003-.02.008-.02.004 0 .008-.013.008-.028 0-.015.003-.027.008-.027.004 0 .008-.01.008-.02 0-.012.003-.021.008-.021.004 0 .008-.01.008-.02 0-.012.003-.021.008-.021.004 0 .008-.01.008-.02 0-.012.003-.021.008-.021.004 0 .008-.01.008-.02 0-.012.003-.021.008-.021.004 0 .008-.01.008-.02 0-.012.003-.021.008-.021.004 0 .008-.01.008-.02 0-.012.003-.021.008-.021.004 0 .008-.01.008-.02 0-.012.003-.021.008-.021.004 0 .008-.01.008-.02 0-.012.003-.021.008-.021.004 0 .008-.01.008-.02 0-.012.003-.02.008-.02.004 0 .008-.013.008-.028 0-.015.003-.027.008-.027.004 0 .008-.007.008-.014 0-.014.005-.014.591-.014.39 0 .592.002.592.007 0 .004-.004.007-.008.007s-.008.009-.008.02c0 .012-.004.02-.008.02s-.008.013-.008.028c0 .015-.004.027-.008.027s-.008.01-.008.02c0 .012-.004.021-.008.021s-.008.01-.008.02c0 .012-.004.021-.008.021s-.008.01-.008.02c0 .012-.004.021-.008.021s-.008.01-.008.02c0 .012-.004.021-.008.021s-.008.012-.008.027-.004.028-.008.028-.008.009-.008.02c0 .012-.003.02-.008.02-.004 0-.008.01-.008.021 0 .011-.003.02-.008.02-.004 0-.008.01-.008.021 0 .011-.003.02-.008.02-.004 0-.008.013-.008.028 0 .015-.003.027-.008.027-.004 0-.008.01-.008.02 0 .012-.003.021-.008.021-.004 0-.008.01-.008.02 0 .012-.003.021-.008.021-.004 0-.008.01-.008.02 0 .012-.003.021-.008.021-.004 0-.008.012-.008.028 0 .014-.003.027-.008.027-.004 0-.008.009-.008.02 0 .011-.003.02-.008.02-.004 0-.008.01-.008.021 0 .011-.003.02-.008.02-.004 0-.008.01-.008.021 0 .011-.003.02-.008.02-.004 0-.008.013-.008.028 0 .015-.003.027-.008.027-.004 0-.008.01-.008.02 0 .012-.003.021-.008.021-.004 0-.008.01-.008.02 0 .012-.003.021-.008.021-.004 0-.008.01-.008.02 0 .012-.003.021-.008.021-.004 0-.008.01-.008.02 0 .012-.003.021-.008.021-.004 0-.008.012-.008.027s-.003.028-.008.028c-.004 0-.008.009-.008.02 0 .011-.003.02-.008.02-.004 0-.008.01-.008.021 0 .011-.003.02-.008.02-.004 0-.008.01-.008.021 0 .011-.003.02-.008.02-.004 0-.008.013-.008.028 0 .015-.003.027-.008.027-.004 0-.008.01-.008.02 0 .012-.003.021-.008.021-.004 0-.008.01-.008.02 0 .012-.003.021-.008.021-.004 0-.008.01-.008.02 0 .012-.003.021-.008.021-.004 0-.008.012-.008.027s-.003.028-.008.028c-.004 0-.008.009-.008.02 0 .011-.003.02-.008.02-.004 0-.008.004-.008.007 0 .005.235.007.688.007h.688v-.02c0-.012-.004-.02-.008-.02-.005 0-.008-.01-.008-.021 0-.011-.004-.02-.008-.02-.005 0-.008-.01-.008-.021 0-.011-.004-.02-.008-.02-.005 0-.008-.01-.008-.021 0-.011-.004-.02-.008-.02-.005 0-.008-.01-.008-.021 0-.011-.004-.02-.008-.02-.005 0-.008-.01-.008-.021 0-.011-.004-.02-.008-.02-.005 0-.008-.01-.008-.021 0-.011-.004-.02-.008-.02-.005 0-.008-.01-.008-.02 0-.012-.004-.021-.008-.021-.005 0-.008-.01-.008-.02 0-.012-.004-.021-.008-.021-.005 0-.008-.01-.008-.02 0-.012-.004-.021-.008-.021-.005 0-.008-.01-.008-.02 0-.012-.004-.021-.008-.021-.005 0-.008-.01-.008-.02 0-.012-.004-.021-.008-.021-.005 0-.008-.01-.008-.02 0-.012-.004-.021-.008-.021-.005 0-.008-.01-.008-.02 0-.012-.004-.021-.008-.021-.005 0-.008-.01-.008-.02 0-.012-.004-.021-.008-.021-.005 0-.008-.01-.008-.02 0-.012-.004-.021-.008-.021-.005 0-.008-.01-.008-.02 0-.012-.004-.021-.008-.021-.005 0-.008-.01-.008-.02 0-.012-.004-.021-.008-.021-.005 0-.008-.01-.008-.02 0-.012-.004-.02-.008-.02-.005 0-.008-.01-.008-.021 0-.012-.004-.02-.008-.02-.005 0-.008-.01-.008-.021 0-.012-.004-.02-.008-.02-.005 0-.008-.01-.008-.021 0-.012-.004-.02-.008-.02-.005 0-.008-.007-.008-.014 0-.008-.004-.014-.008-.014-.005 0-.008-.01-.008-.02 0-.012-.004-.021-.008-.021-.005 0-.008-.01-.008-.02 0-.012-.004-.021-.008-.021-.005 0-.008-.01-.008-.02 0-.012-.004-.021-.008-.021-.005 0-.008-.01-.008-.02 0-.012-.004-.02-.008-.02-.005 0-.008-.01-.008-.021 0-.012-.004-.02-.008-.02-.005 0-.008-.01-.008-.021 0-.012-.004-.02-.008-.02-.005 0-.008-.01-.008-.021 0-.012-.004-.02-.008-.02-.005 0-.008-.01-.008-.021 0-.011-.004-.02-.008-.02-.005 0-.008-.01-.008-.021 0-.011-.004-.02-.008-.02-.005 0-.008-.01-.008-.021 0-.011-.004-.02-.008-.02s-.008-.01-.008-.021c0-.011-.004-.02-.008-.02s-.008-.01-.008-.021c0-.011-.004-.02-.008-.02s-.008-.01-.008-.021c0-.011-.004-.02-.008-.02s-.008-.01-.008-.021c0-.011-.004-.02-.008-.02s-.008-.01-.008-.021c0-.011-.004-.02-.008-.02s-.008-.01-.008-.02c0-.012-.004-.021-.008-.021s-.008-.01-.008-.02c0-.012-.004-.021-.008-.021s-.008-.01-.008-.02c0-.012-.004-.021-.008-.021s-.008-.01-.008-.02c0-.012-.004-.021-.008-.021s-.008-.01-.008-.02c0-.012-.004-.021-.008-.021s-.008-.01-.008-.02c0-.012-.004-.021-.008-.021s-.008-.01-.008-.02c0-.012-.004-.021-.008-.021s-.008-.01-.008-.02c0-.012-.004-.021-.008-.021s-.008-.01-.008-.02c0-.012-.004-.021-.008-.021s-.008-.01-.008-.02c0-.012-.004-.021-.008-.021s-.008-.01-.008-.02c0-.012-.004-.02-.008-.02s-.008-.01-.008-.021c0-.012-.004-.02-.008-.02s-.008-.01-.008-.021c0-.012-.004-.02-.008-.02s-.008-.01-.008-.021c0-.012-.004-.02-.008-.02s-.008-.007-.008-.014c0-.008-.004-.014-.008-.014s-.008-.01-.008-.02c0-.012-.004-.021-.008-.021s-.008-.01-.008-.02c0-.012-.004-.021-.008-.021s-.008-.01-.008-.02c0-.012-.004-.021-.008-.021s-.008-.01-.008-.02c0-.012-.004-.02-.008-.02s-.008-.01-.008-.021c0-.012-.004-.02-.008-.02s-.008-.01-.008-.021c0-.012-.004-.02-.008-.02s-.008-.01-.008-.021c0-.012-.004-.02-.008-.02s-.008-.01-.008-.021c0-.011-.003-.02-.008-.02-.004 0-.008-.01-.008-.021 0-.011-.003-.02-.008-.02-.004 0-.008-.01-.008-.021 0-.011-.003-.02-.008-.02-.004 0-.008-.01-.008-.021 0-.011-.003-.02-.008-.02-.004 0-.008-.01-.008-.021 0-.011-.003-.02-.008-.02-.004 0-.008-.01-.008-.021 0-.011-.003-.02-.008-.02-.004 0-.008-.01-.008-.021 0-.011-.003-.02-.008-.02-.004 0-.008-.01-.008-.021 0-.011-.003-.02-.008-.02-.004 0-.008-.01-.008-.02 0-.012-.003-.021-.008-.021-.004 0-.008-.01-.008-.02 0-.012-.003-.021-.008-.021-.004 0-.008-.01-.008-.02 0-.012-.003-.021-.008-.021-.004 0-.008-.01-.008-.02 0-.012-.003-.021-.008-.021-.004 0-.008-.01-.008-.02 0-.012-.003-.021-.008-.021-.004 0-.008-.01-.008-.02 0-.012-.003-.021-.008-.021-.004 0-.008-.01-.008-.02 0-.012-.003-.021-.008-.021zm3.031.901v-.942h1.088c.72 0 1.087.002 1.087.007 0 .004.018.007.04.007.022 0 .04.003.04.006 0 .004.014.007.032.007.018 0 .032.003.032.007s.014.007.032.007c.018 0 .032.003.032.007 0 .003.01.007.024.007.013 0 .024.003.024.006 0 .004.01.007.024.007.013 0 .024.003.024.007s.007.007.016.007c.009 0 .016.003.016.007 0 .003.01.007.024.007.013 0 .024.002.024.006s.007.007.016.007c.009 0 .016.003.016.007s.007.007.016.007c.009 0 .016.003.016.007 0 .003.007.006.016.006.009 0 .016.003.016.007s.007.007.016.007c.009 0 .016.003.016.007s.006.007.014.007a.04.04 0 01.026.013.04.04 0 00.026.014c.007 0 .014.003.014.007s.006.007.014.007a.04.04 0 01.026.013c.006.008.017.014.024.014.007 0 .017.006.024.014.006.007.017.013.024.013.007 0 .017.006.024.014.006.008.016.014.022.014a.12.12 0 01.042.027.128.128 0 00.04.027c.004 0 .037.025.072.055.034.03.067.054.072.054.011 0 .032.018.032.027 0 .005.032.036.072.069a.47.47 0 01.072.068c0 .005.014.02.032.034.017.015.032.03.032.035 0 .004.01.016.024.027.013.01.024.023.024.028 0 .005.007.014.016.02.008.005.016.014.016.02s.007.015.015.02c.01.006.016.015.016.021 0 .006.008.015.016.02.01.006.016.016.016.023 0 .006.004.012.008.012.005 0 .008.005.008.012 0 .006.008.016.016.022.01.005.016.015.016.022 0 .006.004.012.008.012.005 0 .008.006.008.014 0 .007.004.013.008.013.005 0 .008.006.008.014 0 .007.004.014.008.014.005 0 .008.006.008.013 0 .008.004.014.008.014.005 0 .008.006.008.013 0 .008.004.014.008.014.005 0 .008.006.008.014 0 .007.004.013.008.013.005 0 .008.006.008.014s.004.014.008.014c.005 0 .008.006.008.013 0 .008.004.014.008.014.005 0 .008.01.008.02 0 .012.004.021.008.021.005 0 .008.006.008.014 0 .007.004.013.008.013.005 0 .008.01.008.02 0 .012.004.021.008.021.005 0 .008.006.008.014 0 .007.004.014.008.014.005 0 .008.009.008.02 0 .011.004.02.008.02.005 0 .008.01.008.021 0 .011.004.02.008.02.005 0 .008.013.008.028 0 .015.004.027.008.027.005 0 .008.01.008.02 0 .012.004.021.008.021.005 0 .008.012.008.027s.004.028.008.028c.005 0 .008.015.008.034 0 .019.004.034.008.034.005 0 .008.015.008.034 0 .019.004.034.008.034.005 0 .008.018.008.041 0 .023.004.041.008.041.005 0 .008.03.008.075 0 .046.003.075.008.075s.008.043.008.116c0 .073-.003.116-.008.116s-.008.032-.008.082-.003.082-.008.082c-.004 0-.008.018-.008.041 0 .023-.003.041-.008.041-.004 0-.008.018-.008.041 0 .023-.003.04-.008.04-.004 0-.008.013-.008.028 0 .015-.003.027-.008.027-.004 0-.008.013-.008.028 0 .015-.003.027-.008.027-.004 0-.008.012-.008.028 0 .014-.003.027-.008.027-.004 0-.008.009-.008.02 0 .011-.003.02-.008.02-.004 0-.008.01-.008.021 0 .011-.003.02-.008.02-.004 0-.008.01-.008.021 0 .011-.003.02-.008.02-.004 0-.008.01-.008.021 0 .011-.003.02-.008.02-.004 0-.008.01-.008.021 0 .011-.003.02-.008.02-.004 0-.008.007-.008.014 0 .008-.003.014-.008.014-.004 0-.008.01-.008.02 0 .012-.003.02-.008.02-.004 0-.008.007-.008.014 0 .008-.003.014-.008.014-.004 0-.008.006-.008.014 0 .007-.003.013-.008.013-.004 0-.008.006-.008.014s-.003.014-.008.014c-.004 0-.008.006-.008.013 0 .008-.003.014-.008.014-.004 0-.008.006-.008.014 0 .007-.003.013-.008.013-.004 0-.008.007-.008.014s-.003.014-.008.014c-.004 0-.008.006-.008.013 0 .008-.003.014-.008.014-.004 0-.008.006-.008.014 0 .007-.003.013-.008.013-.004 0-.008.006-.008.012 0 .007-.007.017-.016.022-.008.006-.016.015-.016.02 0 .007-.007.016-.016.021-.008.006-.016.015-.016.02 0 .007-.007.016-.016.021-.008.006-.015.015-.015.02 0 .007-.008.016-.016.021-.01.006-.016.015-.016.02 0 .007-.008.016-.016.021-.01.006-.016.014-.016.02 0 .004-.015.02-.032.035a.12.12 0 00-.032.033c0 .01-.278.247-.289.247a.13.13 0 00-.04.027.12.12 0 01-.04.027c-.007 0-.017.006-.023.014-.007.007-.018.014-.024.014-.007 0-.018.006-.024.013-.007.008-.017.014-.024.014-.007 0-.018.006-.024.014-.007.007-.017.013-.024.013-.007 0-.018.006-.024.014a.04.04 0 01-.026.014c-.008 0-.014.003-.014.006 0 .004-.007.007-.016.007-.009 0-.016.003-.016.007s-.007.007-.016.007c-.009 0-.016.003-.016.007 0 .003-.007.006-.016.006-.009 0-.016.003-.016.007s-.007.007-.016.007c-.009 0-.016.003-.016.007s-.007.007-.016.007c-.009 0-.016.003-.016.007 0 .003-.011.006-.024.006-.013 0-.024.003-.024.007s-.007.007-.016.007c-.009 0-.016.003-.016.007s-.01.007-.024.007c-.013 0-.024.003-.024.007 0 .003-.01.006-.024.006-.013 0-.024.003-.024.007s-.01.007-.024.007c-.013 0-.024.003-.024.007s-.014.007-.032.007c-.018 0-.032.003-.032.007 0 .003-.018.006-.04.006-.022 0-.04.003-.04.007s-.021.007-.048.007-.048.003-.048.007-.363.007-1.072.007H9.325v-2.403h1.12v1.447h.255c.166 0 .256-.002.256-.007 0-.004.022-.007.048-.007.027 0 .048-.003.048-.006 0-.004.015-.007.032-.007.018 0 .032-.003.032-.007s.011-.007.024-.007c.013 0 .024-.003.024-.007s.01-.007.024-.007c.013 0 .024-.003.024-.006 0-.004.01-.007.024-.007.013 0 .024-.003.024-.007s.007-.007.016-.007c.009 0 .016-.003.016-.007s.007-.007.016-.007c.009 0 .016-.003.016-.006 0-.004.007-.007.016-.007.009 0 .016-.003.016-.007s.007-.007.016-.007c.009 0 .016-.003.016-.007s.007-.007.014-.007a.04.04 0 00.026-.013.04.04 0 01.026-.014c.008 0 .014-.003.014-.007 0-.003.005-.006.012-.006s.012-.004.012-.007c0-.004.005-.007.01-.007.006 0 .016-.006.022-.014.006-.007.016-.014.022-.014.012 0 .226-.18.226-.191 0-.004.01-.016.024-.027.013-.01.024-.024.024-.03 0-.006.003-.01.008-.01.004 0 .008-.006.008-.013 0-.007.007-.017.016-.022.009-.005.016-.015.016-.022 0-.007.003-.012.008-.012.004 0 .008-.006.008-.014 0-.007.003-.013.008-.013.004 0 .008-.007.008-.014 0-.008.003-.014.008-.014.004 0 .008-.006.008-.013 0-.008.003-.014.008-.014.004 0 .008-.01.008-.02 0-.012.003-.021.008-.021.004 0 .008-.006.008-.014 0-.007.003-.013.008-.013.004 0 .008-.013.008-.028 0-.015.003-.027.008-.027.004 0 .008-.01.008-.02 0-.012.003-.02.008-.02.004 0 .008-.016.008-.035 0-.019.003-.034.008-.034s.008-.032.008-.081c0-.059.003-.083.01-.086.008-.003.008-.005 0-.008-.007-.003-.01-.027-.01-.085 0-.05-.003-.081-.008-.081s-.008-.016-.008-.034c0-.02-.004-.035-.008-.035-.005 0-.008-.012-.008-.027s-.004-.027-.008-.027c-.005 0-.008-.01-.008-.02 0-.012-.004-.021-.008-.021-.005 0-.008-.01-.008-.02 0-.012-.004-.021-.008-.021-.005 0-.008-.01-.008-.02 0-.012-.004-.021-.008-.021-.005 0-.008-.006-.008-.014 0-.007-.004-.013-.008-.013-.005 0-.008-.007-.008-.014 0-.008-.004-.014-.008-.014-.005 0-.008-.006-.008-.013 0-.008-.004-.014-.008-.014-.005 0-.008-.006-.008-.012 0-.007-.007-.017-.016-.022-.009-.006-.016-.015-.016-.02 0-.007-.007-.016-.016-.021-.009-.005-.016-.014-.016-.02 0-.005-.01-.017-.024-.028-.013-.01-.024-.022-.024-.027a1.428 1.428 0 00-.257-.205c-.007 0-.017-.006-.023-.014a.04.04 0 00-.026-.013c-.008 0-.014-.003-.014-.007s-.007-.007-.016-.007c-.009 0-.016-.003-.016-.007s-.007-.007-.016-.007c-.009 0-.016-.003-.016-.006 0-.004-.007-.007-.016-.007-.009 0-.016-.003-.016-.007s-.007-.007-.016-.007c-.009 0-.016-.003-.016-.007s-.007-.007-.016-.007c-.009 0-.016-.003-.016-.006 0-.004-.01-.007-.024-.007-.013 0-.024-.003-.024-.007s-.007-.007-.016-.007c-.009 0-.016-.003-.016-.007 0-.003-.014-.006-.032-.006-.018 0-.032-.004-.032-.007 0-.004-.014-.007-.032-.007-.017 0-.032-.003-.032-.007s-.018-.007-.04-.007c-.022 0-.04-.003-.04-.007s-.034-.006-.088-.006c-.053 0-.088-.003-.088-.007 0-.005-.253-.007-.743-.007h-.744zm4.19 3.031v-3.973h1.152v3.973h-1.152z" fill="#6B7A9C"/><path d="M6.795 10.354A9.2 9.2 0 015.667 5.5 9.205 9.205 0 016.795.646m2.41 9.708A9.2 9.2 0 0010.333 5.5 9.205 9.205 0 009.205.646" stroke="#6B7A9C" stroke-width="1.2" stroke-linecap="round" stroke-linejoin="round"/><path d="M8 10.5a5 5 0 100-10 5 5 0 000 10zm-5-5h10M3.67 3h8.658M3.67 8h8.658" stroke="#6B7A9C" stroke-width="1.2" stroke-linecap="round" stroke-linejoin="round"/></g><defs><clipPath id="clip0"><path fill="#fff" d="M0 0h16v16H0z"/></clipPath></defs></svg>