<svg width="20" height="20" viewBox="0 0 20 20" fill="none" xmlns="http://www.w3.org/2000/svg">
<g clip-path="url(#clip0)">
<path d="M17.5 15.4583C15.1482 14.3895 12.582 13.8762 10 13.9583C7.41802 13.8762 4.85179 14.3895 2.5 15.4583" stroke="#9CAAC4" stroke-width="1.5" stroke-linecap="round" stroke-linejoin="round"/>
<path d="M13.1266 7.06421L12.4874 14.0917" stroke="#9CAAC4" stroke-width="1.5" stroke-linecap="round" stroke-linejoin="round"/>
<path d="M7.42163 14.1016L11.5433 6.54578" stroke="#9CAAC4" stroke-width="1.5" stroke-linecap="round" stroke-linejoin="round"/>
<path d="M11.5433 6.5458L18.44 8.8033C18.5443 8.83813 18.6558 8.84486 18.7635 8.8228C18.8712 8.80074 18.9712 8.75067 19.0533 8.67765C19.1355 8.60462 19.1969 8.51123 19.2314 8.40688C19.266 8.30252 19.2724 8.19091 19.25 8.0833C19.1505 7.28624 18.8099 6.5386 18.2737 5.94049C17.7376 5.34237 17.0315 4.92234 16.25 4.73663C15.5926 4.59563 14.9155 4.57249 14.25 4.6683" stroke="#9CAAC4" stroke-width="1.5" stroke-linecap="round" stroke-linejoin="round"/>
<path d="M11.5434 6.5458L5.26421 8.24997C5.16118 8.27834 5.05259 8.27982 4.94882 8.25427C4.84505 8.22871 4.74956 8.17698 4.67149 8.104C4.59341 8.03102 4.53535 7.93925 4.50286 7.83743C4.47036 7.73562 4.46452 7.62718 4.48588 7.52247C4.57744 6.71357 4.91587 5.95249 5.45515 5.34269C5.99444 4.73288 6.70842 4.30392 7.50005 4.11413C8.35655 3.92046 9.2478 3.94308 10.0934 4.17997" stroke="#9CAAC4" stroke-width="1.5" stroke-linecap="round" stroke-linejoin="round"/>
<path d="M15.5833 4.63921L18.1667 2.04254C18.2385 1.97196 18.2922 1.885 18.323 1.78912C18.3539 1.69324 18.361 1.59131 18.3438 1.49206C18.3266 1.39282 18.2856 1.29924 18.2242 1.21935C18.1629 1.13945 18.0831 1.07564 17.9917 1.03337C17.3149 0.704088 16.5599 0.56945 15.811 0.644501C15.0621 0.719552 14.3488 1.00134 13.7508 1.45837C13.2197 1.88355 12.844 2.47246 12.6825 3.13337" stroke="#9CAAC4" stroke-width="1.5" stroke-linecap="round" stroke-linejoin="round"/>
<path d="M8.58331 3.98664L6.95664 2.22331C6.88108 2.14269 6.82834 2.04341 6.80383 1.93567C6.77933 1.82793 6.78394 1.71561 6.8172 1.61024C6.85045 1.50487 6.91116 1.41026 6.99307 1.33611C7.07499 1.26195 7.17516 1.21094 7.28331 1.18831C7.97256 1.05516 8.67299 0.988462 9.37498 0.989141C10.0586 1.05188 10.7168 1.27982 11.2928 1.65333C11.8688 2.02685 12.3454 2.53474 12.6816 3.13331" stroke="#9CAAC4" stroke-width="1.5" stroke-linecap="round" stroke-linejoin="round"/>
<path d="M0.625 19.375C1.3037 19.459 1.99259 19.3904 2.64137 19.1741C3.29015 18.9578 3.88244 18.5994 4.375 18.125C4.73027 18.5185 5.16416 18.8331 5.64863 19.0484C6.13309 19.2637 6.65735 19.3749 7.1875 19.3749C7.71765 19.3749 8.24191 19.2637 8.72637 19.0484C9.21084 18.8331 9.64473 18.5185 10 18.125C10.3553 18.5185 10.7892 18.8331 11.2736 19.0484C11.7581 19.2637 12.2823 19.3749 12.8125 19.3749C13.3427 19.3749 13.8669 19.2637 14.3514 19.0484C14.8358 18.8331 15.2697 18.5185 15.625 18.125C16.1176 18.5994 16.7099 18.9578 17.3586 19.1741C18.0074 19.3904 18.6963 19.459 19.375 19.375" stroke="#9CAAC4" stroke-width="1.5" stroke-linecap="round" stroke-linejoin="round"/>
</g>
<defs>
<clipPath id="clip0">
<rect width="20" height="20" fill="white"/>
</clipPath>
</defs>
</svg>
