<svg width="20" height="20" fill="none" xmlns="http://www.w3.org/2000/svg"><path opacity=".2" d="M10 0C4.476 0 0 4.476 0 10s4.476 10 10 10 10-4.476 10-10S15.524 0 10 0zm6.262 7.875l-7.419 7.42a.645.645 0 01-.912 0L3.737 11.1a.645.645 0 010-.912l.913-.912a.645.645 0 01.912 0l2.825 2.825 6.05-6.051a.645.645 0 01.913 0l.912.912a.645.645 0 010 .912z" fill="#37637B"/><path d="M8.843 15.294a.645.645 0 01-.912 0l-4.193-4.193a.645.645 0 010-.912l.912-.913a.645.645 0 01.912 0l2.825 2.825 6.051-6.05a.646.646 0 01.912 0l.913.912a.645.645 0 010 .912l-7.42 7.42z" fill="#37637B"/></svg>