<svg width="18" height="18" fill="none" xmlns="http://www.w3.org/2000/svg"><path d="M16.5 11.5a5.113 5.113 0 01-4 5 5.113 5.113 0 01-4-5V9.14a1 1 0 01.61-.921 8.357 8.357 0 016.78 0 1 1 0 01.61.92V11.5zm-4-2v4m-2-2h4m-8-1a3 3 0 112.638-4.43" stroke="#226FCA" stroke-width="1.2" stroke-linecap="round" stroke-linejoin="round"/><path d="M7.5 7.5h-1v-1" stroke="#226FCA" stroke-width="1.2" stroke-linecap="round" stroke-linejoin="round"/><path d="M6 14.5H2.5a1 1 0 01-1-1v-11a1 1 0 011-1h7.086a1 1 0 01.707.293l1.914 1.914a.999.999 0 01.293.708V5.5" stroke="#226FCA" stroke-width="1.2" stroke-linecap="round" stroke-linejoin="round"/></svg>