<svg width="184" height="16" fill="none" xmlns="http://www.w3.org/2000/svg"><g clip-path="url(#clip0)" stroke="#6B7A9C" stroke-width="1.2" stroke-linecap="round" stroke-linejoin="round"><path d="M13.5.5h-11a2 2 0 00-2 2v3a2 2 0 002 2h11a2 2 0 002-2v-3a2 2 0 00-2-2zm-10 2h9"/><path d="M12.5 5.5h-9a1 1 0 00-1 1v1h11v-1a1 1 0 00-1-1zm-9 4s-1 0-1 1.5 1 1.5 1 3-1 1.5-1 1.5m11-6s-1 0-1 1.5 1 1.5 1 3-1 1.5-1 1.5m-4.5-5v4m-1.732-3l3.464 2m-3.464 0l3.464-2"/></g><g clip-path="url(#clip1)" stroke="#6B7A9C" stroke-width="1.2" stroke-linecap="round" stroke-linejoin="round"><path d="M42 .5H30a1 1 0 00-1 1v13a1 1 0 001 1h12a1 1 0 001-1v-13a1 1 0 00-1-1z"/><path d="M34 2.5h-2a1 1 0 00-1 1v1a1 1 0 001 1h2a1 1 0 001-1v-1a1 1 0 00-1-1zm6 0h-2a1 1 0 00-1 1v1a1 1 0 001 1h2a1 1 0 001-1v-1a1 1 0 00-1-1zm-11 3h14m-14 3h14"/></g><g clip-path="url(#clip2)" stroke="#6B7A9C" stroke-width="1.2" stroke-linecap="round" stroke-linejoin="round"><path d="M70.833 1.917H57.167a.667.667 0 00-.667.666v8.667c0 .368.298.667.667.667h13.666a.667.667 0 00.667-.667V2.583a.667.667 0 00-.667-.666zM61 14.417h6m-3-2.5v2.5"/></g><g clip-path="url(#clip3)" stroke="#6B7A9C" stroke-width="1.2" stroke-linecap="round" stroke-linejoin="round"><path d="M95.5 4v10.5a1 1 0 01-1 1h-5a1 1 0 01-1-1V11A3.5 3.5 0 0192 7.503 3.5 3.5 0 1088.5 4m2 9.503h3"/></g><g clip-path="url(#clip4)" stroke="#6B7A9C" stroke-width="1.2" stroke-linecap="round" stroke-linejoin="round"><path d="M120.5 9.5h7l-.443 2.657a3.995 3.995 0 01-3.946 3.343h-6.222a4 4 0 01-3.946-3.343L112.5 9.5h3"/><path d="M120 13.5h-4a.501.501 0 01-.5-.5V9.5a.998.998 0 011-1h3a1 1 0 011 1V13a.503.503 0 01-.5.5zm2.5-11a2 2 0 014 0v7"/><path d="M120.5 4.5a2 2 0 014 0h-4z"/></g><g clip-path="url(#clip5)" stroke="#6B7A9C" stroke-width="1.2" stroke-linecap="round" stroke-linejoin="round"><path d="M147.499 9.919a5.398 5.398 0 01-2-4 5.283 5.283 0 011.656-3.698.491.491 0 01.686 0 5.266 5.266 0 011.658 3.697 5.411 5.411 0 01-2 4v0z"/><path d="M149.445 5.219a5.706 5.706 0 013.24-.986.501.501 0 01.499.496 5.276 5.276 0 01-1.443 3.776 5.397 5.397 0 01-4.242 1.414m-1.948-4.693a5.661 5.661 0 00-3.267-.993.5.5 0 00-.499.496 5.276 5.276 0 001.443 3.776 5.447 5.447 0 004.271 1.414"/><path d="M142.733 7.918c-1.311.56-2.234 1.582-2.234 2.5 0 1.934 3.358 3.5 7.5 3.5a14.449 14.449 0 004.5-.674v-2.325h2.922c.051-.162.077-.33.078-.5 0-1.144-1.233-2.184-3.052-2.822"/></g><g clip-path="url(#clip6)" stroke="#6B7A9C" stroke-width="1.2" stroke-linecap="round" stroke-linejoin="round"><path d="M175.833 4.501a2 2 0 100-4 2 2 0 000 4zm3 4a2.993 2.993 0 00-1.099-2.323 2.998 2.998 0 00-2.495-.62 3.076 3.076 0 00-2.406 3.054V10a.5.5 0 00.5.5h1V13a.5.5 0 00.5.5h2a.5.5 0 00.5-.5v-2.5h1a.5.5 0 00.5-.5V8.501zm-8-2.501a1.621 1.621 0 00.5-1.226c0-.819-1-1.227-1-2.046a1.635 1.635 0 01.5-1.227m11 4.499a1.62 1.62 0 00.5-1.227c0-.818-1-1.226-1-2.045a1.635 1.635 0 01.5-1.227"/><path d="M180.835 9.552c1.236.631 2 1.496 2 2.45 0 1.933-3.134 3.5-7 3.5-3.867 0-7.002-1.569-7.002-3.502 0-.954.763-1.818 2-2.45"/></g><defs><clipPath id="clip0"><path fill="#fff" d="M0 0h16v16H0z"/></clipPath><clipPath id="clip1"><path fill="#fff" transform="translate(28)" d="M0 0h16v16H0z"/></clipPath><clipPath id="clip2"><path fill="#fff" transform="translate(56)" d="M0 0h16v16H0z"/></clipPath><clipPath id="clip3"><path fill="#fff" transform="translate(84)" d="M0 0h16v16H0z"/></clipPath><clipPath id="clip4"><path fill="#fff" transform="translate(112)" d="M0 0h16v16H0z"/></clipPath><clipPath id="clip5"><path fill="#fff" transform="translate(140)" d="M0 0h16v16H0z"/></clipPath><clipPath id="clip6"><path fill="#fff" transform="translate(168)" d="M0 0h16v16H0z"/></clipPath></defs></svg>