<svg width="16" height="16" fill="none" xmlns="http://www.w3.org/2000/svg"><g clip-path="url(#clip0)" stroke="#226FCA" stroke-width="1.2" stroke-linecap="round" stroke-linejoin="round"><path d="M14 .5H3a1 1 0 00-1 1v13a1 1 0 001 1h11a1 1 0 001-1v-13a1 1 0 00-1-1zm-13 3h2m-2 3h2m-2 3h2m-2 3h2"/><path d="M7 7.5c.828 0 1.5-.784 1.5-1.75S7.828 4 7 4s-1.5.784-1.5 1.75S6.172 7.5 7 7.5zm0 0v4m4-4v4M10 4v2.5a1 1 0 002 0V4"/></g><defs><clipPath id="clip0"><path fill="#fff" d="M0 0h16v16H0z"/></clipPath></defs></svg>