<svg width="16" height="18" viewBox="0 0 16 18" fill="none" xmlns="http://www.w3.org/2000/svg">
<path d="M9.33366 16.6667L9.66699 12.6667H11.3337V10.3333C11.3337 9.44928 10.9825 8.60143 10.3573 7.97631C9.73223 7.35119 8.88438 7 8.00033 7C7.11627 7 6.26842 7.35119 5.6433 7.97631C5.01818 8.60143 4.66699 9.44928 4.66699 10.3333V12.6667H6.33366L6.66699 16.6667H9.33366Z" stroke="#226FCA" stroke-width="1.2" stroke-linecap="round" stroke-linejoin="round"/>
<path d="M8.00033 6.00004C9.28899 6.00004 10.3337 4.95537 10.3337 3.66671C10.3337 2.37804 9.28899 1.33337 8.00033 1.33337C6.71166 1.33337 5.66699 2.37804 5.66699 3.66671C5.66699 4.95537 6.71166 6.00004 8.00033 6.00004Z" stroke="#226FCA" stroke-width="1.2" stroke-linecap="round" stroke-linejoin="round"/>
</svg>
