<svg width="16" height="16" fill="none" xmlns="http://www.w3.org/2000/svg"><g clip-path="url(#clip0)" stroke="#6B7A9C" stroke-width="1.2" stroke-linecap="round" stroke-linejoin="round"><path d="M4.5 11.5v3m0-10.25a1.75 1.75 0 100-3.5 1.75 1.75 0 000 3.5zm-2 7.25h-1a1 1 0 01-1-1v-3a2 2 0 012-2H9a1 1 0 010 2H6.5v7a1 1 0 11-2 0 1 1 0 11-2 0L2.495 8M8.5 2v-.5a1 1 0 011-1h5a1 1 0 011 1v6a1 1 0 01-1 1h-3m2-6.25a.25.25 0 01.25.25m-.5 0a.25.25 0 01.25-.25m0 .5a.25.25 0 01-.25-.25m.5 0a.25.25 0 01-.25.25M13 4.5A1.5 1.5 0 0111.5 6m3 2.5v4"/></g><defs><clipPath id="clip0"><path fill="#fff" d="M0 0h16v16H0z"/></clipPath></defs></svg>