<svg width="21" height="14" viewBox="0 0 21 14" fill="none" xmlns="http://www.w3.org/2000/svg">
<path d="M19.2836 4.07758L21 2.13862H17.1938C15.2883 0.787115 12.9871 0 10.4984 0C8.01283 0 5.71803 0.788813 3.81572 2.13862H0L1.71636 4.07758C0.664314 5.07425 0.00478451 6.50992 0.00478451 8.10398C0.00478451 11.1122 2.35368 13.5512 5.25084 13.5512C6.62711 13.5512 7.88098 13 8.81705 12.099L10.4984 14L12.1798 12.1007C13.1159 13.0017 14.3682 13.5512 15.7445 13.5512C18.6416 13.5512 20.9937 11.1122 20.9937 8.10398C20.9952 6.50827 20.3357 5.07264 19.2836 4.07758ZM5.25239 11.7904C3.29127 11.7904 1.70209 10.1403 1.70209 8.10398C1.70209 6.06766 3.29131 4.4175 5.25239 4.4175C7.21348 4.4175 8.8027 6.06766 8.8027 8.10398C8.8027 10.1403 7.21348 11.7904 5.25239 11.7904ZM10.5 7.99672C10.5 5.57095 8.80114 3.48847 6.55873 2.59902C7.7713 2.07259 9.10148 1.78052 10.4984 1.78052C11.8953 1.78052 13.2271 2.07259 14.4397 2.59902C12.1989 3.49013 10.5 5.571 10.5 7.99672ZM15.7461 11.7904C13.7849 11.7904 12.1957 10.1403 12.1957 8.10398C12.1957 6.06766 13.7849 4.4175 15.7461 4.4175C17.7072 4.4175 19.2964 6.06766 19.2964 8.10398C19.2964 10.1403 17.7071 11.7904 15.7461 11.7904ZM15.7461 6.16995C14.7178 6.16995 13.885 7.03465 13.885 8.10233C13.885 9.16996 14.7178 10.0347 15.7461 10.0347C16.7743 10.0347 17.607 9.16996 17.607 8.10233C17.607 7.03631 16.7743 6.16995 15.7461 6.16995ZM7.11336 8.10398C7.11336 9.17162 6.2806 10.0363 5.25239 10.0363C4.22419 10.0363 3.39142 9.17162 3.39142 8.10398C3.39142 7.03631 4.22419 6.17161 5.25239 6.17161C6.2806 6.16995 7.11336 7.03631 7.11336 8.10398Z" fill="black"/>
</svg>
