<svg width="28" height="28" viewBox="0 0 28 28" fill="none" xmlns="http://www.w3.org/2000/svg">
<path d="M0.249983 2.82779C0.249983 16.6046 11.4165 27.7496 25.1718 27.7496C25.4634 27.7498 25.7465 27.6511 25.9748 27.4697C26.203 27.2882 26.363 27.0347 26.4287 26.7506L27.7177 21.1647C27.7843 20.8687 27.7456 20.5588 27.6084 20.2882C27.4711 20.0177 27.2439 19.8034 26.9658 19.6823L20.9501 17.1041C20.6932 16.9946 20.4076 16.9715 20.1363 17.0384C19.8651 17.1052 19.6229 17.2584 19.4462 17.4747L16.7822 20.7296C12.6008 18.7585 9.23577 15.3935 7.26462 11.2121L10.5195 8.548C10.7363 8.37165 10.8898 8.12947 10.9566 7.85811C11.0235 7.58675 11.0002 7.30099 10.8901 7.0441L8.31198 1.02848C8.19109 0.751541 7.97733 0.525477 7.70758 0.389281C7.43784 0.253086 7.12902 0.215298 6.8344 0.282436L1.24847 1.5715C0.964527 1.63719 0.711229 1.79717 0.529894 2.02532C0.348558 2.25348 0.249889 2.53635 0.249983 2.82779Z" fill="#37637B"/>
</svg>
