<svg width="20" height="20" fill="none" xmlns="http://www.w3.org/2000/svg"><g clip-path="url(#clip0)" stroke="#9CAAC4" stroke-width="1.5" stroke-linecap="round" stroke-linejoin="round"><path d="M17.5 15.458a16.834 16.834 0 00-7.5-1.5 16.834 16.834 0 00-7.5 1.5m10.627-8.394l-.64 7.028m-5.065.01l4.121-7.556m0 0l6.897 2.257a.625.625 0 00.81-.72 3.941 3.941 0 00-3-3.346 5.678 5.678 0 00-2-.069m-2.707 1.878L5.264 8.25a.625.625 0 01-.778-.728A3.963 3.963 0 017.5 4.114a5.29 5.29 0 012.593.066"/><path d="M15.583 4.64l2.584-2.597a.622.622 0 00-.175-1.01 4.06 4.06 0 00-4.241.425 3.083 3.083 0 00-1.069 1.675m-4.099.854L6.957 2.223a.623.623 0 01.326-1.035c.69-.133 1.39-.2 2.092-.199a4.237 4.237 0 013.307 2.144M.625 19.375a4.592 4.592 0 003.75-1.25 3.79 3.79 0 005.625 0 3.79 3.79 0 005.625 0 4.594 4.594 0 003.75 1.25"/></g><defs><clipPath id="clip0"><path fill="#fff" d="M0 0h20v20H0z"/></clipPath></defs></svg>